<svg width="40" height="40" viewBox="0 0 40 40" fill="none" xmlns="http://www.w3.org/2000/svg">
<circle cx="20" cy="20" r="20" fill="#EF7D00" fill-opacity="0.2"/>
<path d="M15.4271 10.396C15.4271 10.2054 15.3514 10.0226 15.2166 9.88776C15.0818 9.75297 14.899 9.67725 14.7084 9.67725C14.5178 9.67725 14.3349 9.75297 14.2002 9.88776C14.0654 10.0226 13.9896 10.2054 13.9896 10.396V11.9102C12.6096 12.0204 11.705 12.2906 11.0399 12.9567C10.3738 13.6217 10.1036 14.5274 9.99243 15.9064H29.0077C28.8965 14.5264 28.6263 13.6217 27.9602 12.9567C27.2951 12.2906 26.3895 12.0204 25.0105 11.9092V10.396C25.0105 10.2054 24.9347 10.0226 24.8 9.88776C24.6652 9.75297 24.4823 9.67725 24.2917 9.67725C24.1011 9.67725 23.9183 9.75297 23.7835 9.88776C23.6487 10.0226 23.573 10.2054 23.573 10.396V11.846C22.9357 11.8335 22.2208 11.8335 21.4167 11.8335H17.5834C16.7793 11.8335 16.0644 11.8335 15.4271 11.846V10.396Z" fill="#EF7D00"/>
<path fill-rule="evenodd" clip-rule="evenodd" d="M9.91663 19.5C9.91663 18.696 9.91663 17.981 9.92908 17.3438H29.0708C29.0833 17.981 29.0833 18.696 29.0833 19.5V21.4167C29.0833 25.0305 29.0833 26.838 27.9601 27.9602C26.837 29.0824 25.0305 29.0833 21.4166 29.0833H17.5833C13.9694 29.0833 12.162 29.0833 11.0398 27.9602C9.91758 26.837 9.91663 25.0305 9.91663 21.4167V19.5ZM24.2916 21.4167C24.5458 21.4167 24.7895 21.3157 24.9693 21.136C25.149 20.9563 25.25 20.7125 25.25 20.4583C25.25 20.2042 25.149 19.9604 24.9693 19.7807C24.7895 19.601 24.5458 19.5 24.2916 19.5C24.0375 19.5 23.7937 19.601 23.614 19.7807C23.4343 19.9604 23.3333 20.2042 23.3333 20.4583C23.3333 20.7125 23.4343 20.9563 23.614 21.136C23.7937 21.3157 24.0375 21.4167 24.2916 21.4167ZM24.2916 25.25C24.5458 25.25 24.7895 25.149 24.9693 24.9693C25.149 24.7896 25.25 24.5458 25.25 24.2917C25.25 24.0375 25.149 23.7937 24.9693 23.614C24.7895 23.4343 24.5458 23.3333 24.2916 23.3333C24.0375 23.3333 23.7937 23.4343 23.614 23.614C23.4343 23.7937 23.3333 24.0375 23.3333 24.2917C23.3333 24.5458 23.4343 24.7896 23.614 24.9693C23.7937 25.149 24.0375 25.25 24.2916 25.25ZM20.4583 20.4583C20.4583 20.7125 20.3573 20.9563 20.1776 21.136C19.9979 21.3157 19.7541 21.4167 19.5 21.4167C19.2458 21.4167 19.002 21.3157 18.8223 21.136C18.6426 20.9563 18.5416 20.7125 18.5416 20.4583C18.5416 20.2042 18.6426 19.9604 18.8223 19.7807C19.002 19.601 19.2458 19.5 19.5 19.5C19.7541 19.5 19.9979 19.601 20.1776 19.7807C20.3573 19.9604 20.4583 20.2042 20.4583 20.4583ZM20.4583 24.2917C20.4583 24.5458 20.3573 24.7896 20.1776 24.9693C19.9979 25.149 19.7541 25.25 19.5 25.25C19.2458 25.25 19.002 25.149 18.8223 24.9693C18.6426 24.7896 18.5416 24.5458 18.5416 24.2917C18.5416 24.0375 18.6426 23.7937 18.8223 23.614C19.002 23.4343 19.2458 23.3333 19.5 23.3333C19.7541 23.3333 19.9979 23.4343 20.1776 23.614C20.3573 23.7937 20.4583 24.0375 20.4583 24.2917ZM14.7083 21.4167C14.9625 21.4167 15.2062 21.3157 15.3859 21.136C15.5657 20.9563 15.6666 20.7125 15.6666 20.4583C15.6666 20.2042 15.5657 19.9604 15.3859 19.7807C15.2062 19.601 14.9625 19.5 14.7083 19.5C14.4541 19.5 14.2104 19.601 14.0306 19.7807C13.8509 19.9604 13.75 20.2042 13.75 20.4583C13.75 20.7125 13.8509 20.9563 14.0306 21.136C14.2104 21.3157 14.4541 21.4167 14.7083 21.4167ZM14.7083 25.25C14.9625 25.25 15.2062 25.149 15.3859 24.9693C15.5657 24.7896 15.6666 24.5458 15.6666 24.2917C15.6666 24.0375 15.5657 23.7937 15.3859 23.614C15.2062 23.4343 14.9625 23.3333 14.7083 23.3333C14.4541 23.3333 14.2104 23.4343 14.0306 23.614C13.8509 23.7937 13.75 24.0375 13.75 24.2917C13.75 24.5458 13.8509 24.7896 14.0306 24.9693C14.2104 25.149 14.4541 25.25 14.7083 25.25Z" fill="#EF7D00"/>
</svg>
