<svg width="40" height="40" viewBox="0 0 40 40" fill="none" xmlns="http://www.w3.org/2000/svg">
<circle cx="20" cy="20" r="20" fill="#404040" fill-opacity="0.2"/>
<path d="M15.4271 10.396C15.4271 10.2054 15.3514 10.0226 15.2166 9.88776C15.0818 9.75297 14.899 9.67725 14.7084 9.67725C14.5178 9.67725 14.3349 9.75297 14.2002 9.88776C14.0654 10.0226 13.9896 10.2054 13.9896 10.396V11.9102C12.6096 12.0204 11.705 12.2906 11.0399 12.9567C10.3738 13.6217 10.1036 14.5274 9.99243 15.9064H29.0077C28.8965 14.5264 28.6263 13.6217 27.9602 12.9567C27.2951 12.2906 26.3895 12.0204 25.0105 11.9092V10.396C25.0105 10.2054 24.9347 10.0226 24.8 9.88776C24.6652 9.75297 24.4823 9.67725 24.2917 9.67725C24.1011 9.67725 23.9183 9.75297 23.7835 9.88776C23.6487 10.0226 23.573 10.2054 23.573 10.396V11.846C22.9357 11.8335 22.2208 11.8335 21.4167 11.8335H17.5834C16.7793 11.8335 16.0644 11.8335 15.4271 11.846V10.396Z" fill="#404040"/>
<path fill-rule="evenodd" clip-rule="evenodd" d="M9.91675 19.5C9.91675 18.696 9.91675 17.981 9.92921 17.3438H29.071C29.0834 17.981 29.0834 18.696 29.0834 19.5V21.4167C29.0834 25.0305 29.0834 26.838 27.9602 27.9602C26.8371 29.0824 25.0306 29.0833 21.4167 29.0833H17.5834C13.9695 29.0833 12.1621 29.0833 11.0399 27.9602C9.91771 26.837 9.91675 25.0305 9.91675 21.4167V19.5ZM24.2917 21.4167C24.5459 21.4167 24.7897 21.3157 24.9694 21.136C25.1491 20.9563 25.2501 20.7125 25.2501 20.4583C25.2501 20.2042 25.1491 19.9604 24.9694 19.7807C24.7897 19.601 24.5459 19.5 24.2917 19.5C24.0376 19.5 23.7938 19.601 23.6141 19.7807C23.4344 19.9604 23.3334 20.2042 23.3334 20.4583C23.3334 20.7125 23.4344 20.9563 23.6141 21.136C23.7938 21.3157 24.0376 21.4167 24.2917 21.4167ZM24.2917 25.25C24.5459 25.25 24.7897 25.149 24.9694 24.9693C25.1491 24.7896 25.2501 24.5458 25.2501 24.2917C25.2501 24.0375 25.1491 23.7937 24.9694 23.614C24.7897 23.4343 24.5459 23.3333 24.2917 23.3333C24.0376 23.3333 23.7938 23.4343 23.6141 23.614C23.4344 23.7937 23.3334 24.0375 23.3334 24.2917C23.3334 24.5458 23.4344 24.7896 23.6141 24.9693C23.7938 25.149 24.0376 25.25 24.2917 25.25ZM20.4584 20.4583C20.4584 20.7125 20.3574 20.9563 20.1777 21.136C19.998 21.3157 19.7542 21.4167 19.5001 21.4167C19.2459 21.4167 19.0022 21.3157 18.8224 21.136C18.6427 20.9563 18.5417 20.7125 18.5417 20.4583C18.5417 20.2042 18.6427 19.9604 18.8224 19.7807C19.0022 19.601 19.2459 19.5 19.5001 19.5C19.7542 19.5 19.998 19.601 20.1777 19.7807C20.3574 19.9604 20.4584 20.2042 20.4584 20.4583ZM20.4584 24.2917C20.4584 24.5458 20.3574 24.7896 20.1777 24.9693C19.998 25.149 19.7542 25.25 19.5001 25.25C19.2459 25.25 19.0022 25.149 18.8224 24.9693C18.6427 24.7896 18.5417 24.5458 18.5417 24.2917C18.5417 24.0375 18.6427 23.7937 18.8224 23.614C19.0022 23.4343 19.2459 23.3333 19.5001 23.3333C19.7542 23.3333 19.998 23.4343 20.1777 23.614C20.3574 23.7937 20.4584 24.0375 20.4584 24.2917ZM14.7084 21.4167C14.9626 21.4167 15.2063 21.3157 15.3861 21.136C15.5658 20.9563 15.6667 20.7125 15.6667 20.4583C15.6667 20.2042 15.5658 19.9604 15.3861 19.7807C15.2063 19.601 14.9626 19.5 14.7084 19.5C14.4542 19.5 14.2105 19.601 14.0308 19.7807C13.851 19.9604 13.7501 20.2042 13.7501 20.4583C13.7501 20.7125 13.851 20.9563 14.0308 21.136C14.2105 21.3157 14.4542 21.4167 14.7084 21.4167ZM14.7084 25.25C14.9626 25.25 15.2063 25.149 15.3861 24.9693C15.5658 24.7896 15.6667 24.5458 15.6667 24.2917C15.6667 24.0375 15.5658 23.7937 15.3861 23.614C15.2063 23.4343 14.9626 23.3333 14.7084 23.3333C14.4542 23.3333 14.2105 23.4343 14.0308 23.614C13.851 23.7937 13.7501 24.0375 13.7501 24.2917C13.7501 24.5458 13.851 24.7896 14.0308 24.9693C14.2105 25.149 14.4542 25.25 14.7084 25.25Z" fill="#404040"/>
</svg>
