<svg width="31" height="30" viewBox="0 0 31 30" fill="none" xmlns="http://www.w3.org/2000/svg">
<path d="M14.5179 13.4918C17.5901 13.4918 20.0806 11.0816 20.0806 8.10843C20.0806 5.1353 17.5901 2.7251 14.5179 2.7251C11.4456 2.7251 8.95508 5.1353 8.95508 8.10843C8.95508 11.0816 11.4456 13.4918 14.5179 13.4918Z" fill="#EF7D00"/>
<path d="M18.084 23.3335H24.1118V24.5002H18.084V23.3335Z" fill="#EF7D00"/>
<path d="M12.9173 25.0002V27.5002C12.9173 27.7212 13.0081 27.9332 13.1695 28.0895C13.331 28.2457 13.5501 28.3335 13.7784 28.3335H28.4173C28.6457 28.3335 28.8647 28.2457 29.0262 28.0895C29.1877 27.9332 29.2784 27.7212 29.2784 27.5002V19.1669C29.2784 18.9458 29.1877 18.7339 29.0262 18.5776C28.8647 18.4213 28.6457 18.3335 28.4173 18.3335H22.3896V17.1085C22.3896 16.8875 22.2988 16.6756 22.1373 16.5193C21.9759 16.363 21.7568 16.2752 21.5284 16.2752C21.3001 16.2752 21.081 16.363 20.9195 16.5193C20.7581 16.6756 20.6673 16.8875 20.6673 17.1085V18.3335H18.9451V15.3502C17.4819 15.1185 16.0017 15.0014 14.519 15.0002C11.2492 14.9867 8.01601 15.6666 5.04677 16.9919C4.55808 17.215 4.1458 17.5692 3.85885 18.0123C3.5719 18.4555 3.42233 18.9689 3.42788 19.4919V25.0002H12.9173ZM27.5562 26.6669H14.6396V20.0002H20.6673V20.3502C20.6673 20.5712 20.7581 20.7832 20.9195 20.9395C21.081 21.0957 21.3001 21.1835 21.5284 21.1835C21.7568 21.1835 21.9759 21.0957 22.1373 20.9395C22.2988 20.7832 22.3896 20.5712 22.3896 20.3502V20.0002H27.5562V26.6669Z" fill="#EF7D00"/>
</svg>
