<svg width="40" height="40" viewBox="0 0 40 40" fill="none" xmlns="http://www.w3.org/2000/svg">
<circle cx="20" cy="20" r="20" fill="#1C68CB" fill-opacity="0.2"/>
<path d="M10 28C9.45 28 8.97933 27.8043 8.588 27.413C8.19667 27.0217 8.00067 26.5507 8 26H12C11.45 26 10.9793 25.8043 10.588 25.413C10.1967 25.0217 10.0007 24.5507 10 24V13C10 12.45 10.196 11.9793 10.588 11.588C10.98 11.1967 11.4507 11.0007 12 11H28C28.55 11 29.021 11.196 29.413 11.588C29.805 11.98 30.0007 12.4507 30 13V24C30 24.55 29.8043 25.021 29.413 25.413C29.0217 25.805 28.5507 26.0007 28 26H32C32 26.55 31.8043 27.021 31.413 27.413C31.0217 27.805 30.5507 28.0007 30 28H10ZM20 27C20.2833 27 20.521 26.904 20.713 26.712C20.905 26.52 21.0007 26.2827 21 26C20.9993 25.7173 20.9033 25.48 20.712 25.288C20.5207 25.096 20.2833 25 20 25C19.7167 25 19.4793 25.096 19.288 25.288C19.0967 25.48 19.0007 25.7173 19 26C18.9993 26.2827 19.0953 26.5203 19.288 26.713C19.4807 26.9057 19.718 27.0013 20 27Z" fill="#0054B7"/>
</svg>
