<svg width="323" height="137" viewBox="0 0 323 137" fill="none" xmlns="http://www.w3.org/2000/svg">
<g clip-path="url(#clip0_110_584)">
<path d="M74.3363 93.8568L4.64087 137L76.0178 66.8853L119.463 109.322H89.8108L74.3363 93.8568Z" fill="#EF7D00"/>
<path d="M71.2328 62.0549L7.90301 0V19.8768L47.125 58.3027L44.7517 62.0925L7.90301 25.9876V45.8597L36.988 74.3661L34.5907 78.1277L7.90301 51.9282V71.8002L26.7837 90.3494L0 132.306L71.2328 62.0549Z" fill="black"/>
<path d="M53.3753 125.343V126.84C53.0294 127.043 52.6403 127.194 52.2031 127.297C51.7707 127.401 51.2999 127.448 50.7955 127.448C49.6088 127.448 48.6528 127.081 47.9273 126.341C47.2019 125.607 46.8416 124.637 46.8416 123.432C46.8416 122.227 47.2163 121.238 47.9657 120.475C48.7152 119.708 49.6761 119.327 50.8483 119.327C51.2711 119.327 51.6891 119.369 52.0926 119.458C52.4962 119.548 52.8805 119.675 53.2408 119.845V121.229C52.9045 121.012 52.5586 120.852 52.1983 120.739C51.838 120.626 51.4777 120.57 51.1077 120.57C50.243 120.57 49.556 120.833 49.0323 121.365C48.5134 121.892 48.2492 122.599 48.2492 123.474C48.2492 124.246 48.5086 124.896 49.0323 125.419C49.556 125.941 50.2093 126.2 51.002 126.2C51.4008 126.2 51.7899 126.134 52.1695 125.998C52.5538 125.857 52.9574 125.64 53.3753 125.343Z" fill="#646363"/>
<path d="M55.96 123.385C55.96 122.829 56.0657 122.307 56.2722 121.817C56.4788 121.328 56.7815 120.89 57.1802 120.504C57.579 120.118 58.0258 119.826 58.5302 119.628C59.0347 119.426 59.5728 119.327 60.1445 119.327C60.7018 119.327 61.235 119.426 61.7347 119.633C62.2343 119.835 62.6907 120.132 63.0991 120.522C63.4978 120.899 63.8005 121.337 64.0071 121.827C64.2137 122.316 64.3194 122.834 64.3194 123.385C64.3194 123.936 64.2137 124.449 64.0071 124.938C63.8005 125.423 63.4978 125.857 63.0991 126.233C62.6907 126.629 62.2343 126.93 61.7251 127.137C61.2206 127.344 60.6922 127.452 60.1445 127.452C59.5776 127.452 59.0395 127.349 58.535 127.142C58.0306 126.935 57.579 126.643 57.1802 126.257C56.7815 125.861 56.4788 125.423 56.2722 124.938C56.0657 124.458 55.96 123.94 55.96 123.385ZM57.3532 123.385C57.3532 124.18 57.627 124.854 58.1699 125.405C58.7128 125.955 59.371 126.233 60.1445 126.233C60.9083 126.233 61.5617 125.955 62.0998 125.405C62.6379 124.854 62.9069 124.18 62.9069 123.385C62.9069 122.589 62.6379 121.916 62.0998 121.365C61.5617 120.814 60.9083 120.537 60.1445 120.537C59.3662 120.537 58.708 120.814 58.1651 121.365C57.6222 121.916 57.3532 122.589 57.3532 123.385Z" fill="#646363"/>
<path d="M67.1204 123.385C67.1204 122.829 67.2212 122.307 67.4326 121.817C67.6392 121.328 67.9419 120.89 68.3406 120.504C68.7394 120.118 69.191 119.826 69.6954 119.628C70.1999 119.426 70.738 119.327 71.3097 119.327C71.8718 119.327 72.4002 119.426 72.8999 119.633C73.3995 119.835 73.8559 120.132 74.2643 120.522C74.663 120.899 74.9657 121.337 75.1723 121.827C75.3789 122.316 75.4846 122.834 75.4846 123.385C75.4846 123.936 75.3837 124.449 75.1723 124.938C74.9657 125.423 74.663 125.857 74.2643 126.233C73.8559 126.629 73.3995 126.93 72.8903 127.137C72.3858 127.344 71.8526 127.452 71.3049 127.452C70.738 127.452 70.2047 127.349 69.6954 127.142C69.191 126.935 68.7346 126.643 68.3358 126.257C67.9419 125.861 67.6392 125.423 67.4278 124.938C67.2213 124.458 67.1204 123.94 67.1204 123.385ZM68.5136 123.385C68.5136 124.18 68.7826 124.854 69.3303 125.405C69.8732 125.955 70.5314 126.233 71.3049 126.233C72.0735 126.233 72.7221 125.955 73.2602 125.405C73.7983 124.854 74.0673 124.18 74.0673 123.385C74.0673 122.589 73.7983 121.916 73.2602 121.365C72.7221 120.814 72.0687 120.537 71.3049 120.537C70.5266 120.537 69.8684 120.814 69.3255 121.365C68.7826 121.916 68.5136 122.589 68.5136 123.385Z" fill="#646363"/>
<path d="M78.9004 129.35V119.595H80.1495V121.012C80.4474 120.471 80.8365 120.052 81.3265 119.764C81.8118 119.473 82.3547 119.327 82.9552 119.327C84.065 119.327 84.9538 119.694 85.6264 120.438C86.299 121.177 86.6353 122.161 86.6353 123.385C86.6353 124.632 86.3038 125.621 85.6456 126.351C84.9874 127.085 84.1082 127.448 83.0032 127.448C82.3691 127.448 81.8214 127.307 81.3506 127.024C80.8797 126.742 80.4954 126.323 80.1975 125.762V129.35H78.9004ZM80.1687 123.385C80.1687 124.228 80.4089 124.91 80.8846 125.419C81.3602 125.927 81.9895 126.186 82.7726 126.186C83.5365 126.186 84.1418 125.955 84.5838 125.485C85.021 125.019 85.242 124.369 85.242 123.545C85.242 122.617 85.021 121.892 84.5838 121.365C84.1466 120.838 83.5317 120.574 82.7486 120.574C81.9463 120.574 81.3169 120.824 80.8605 121.323C80.3945 121.817 80.1687 122.504 80.1687 123.385Z" fill="#646363"/>
<path d="M96.9691 123.559H90.8821V123.672C90.8821 124.477 91.1175 125.132 91.5883 125.626C92.0592 126.12 92.6741 126.37 93.4284 126.37C93.9424 126.37 94.4084 126.233 94.8216 125.965C95.2348 125.692 95.6047 125.282 95.9218 124.736L96.9211 125.395C96.5367 126.078 96.0419 126.591 95.4414 126.935C94.8408 127.278 94.149 127.453 93.3563 127.453C92.1889 127.453 91.2376 127.076 90.517 126.318C89.7916 125.56 89.436 124.567 89.436 123.338C89.436 122.156 89.7915 121.191 90.5122 120.443C91.228 119.689 92.1504 119.317 93.2746 119.317C94.4132 119.317 95.3116 119.67 95.9746 120.386C96.6376 121.102 96.9691 122.072 96.9691 123.31V123.559ZM95.5615 122.514C95.5182 121.85 95.2924 121.337 94.8841 120.979C94.4757 120.621 93.9232 120.443 93.217 120.443C92.578 120.443 92.0496 120.631 91.622 121.008C91.1944 121.384 90.9494 121.888 90.8821 122.519H95.5615V122.514Z" fill="#646363"/>
<path d="M100.347 127.128V119.6H101.514V121.163C101.87 120.509 102.244 120.042 102.638 119.765C103.037 119.482 103.517 119.346 104.089 119.346C104.248 119.346 104.397 119.36 104.541 119.383C104.685 119.407 104.834 119.445 104.978 119.496L104.541 120.654C104.387 120.607 104.248 120.57 104.113 120.546C103.979 120.518 103.849 120.509 103.724 120.509C103.032 120.509 102.509 120.753 102.163 121.243C101.817 121.733 101.644 122.472 101.644 123.46V127.128H100.347Z" fill="#646363"/>
<path d="M114.899 119.6V127.128H113.621V125.763C113.313 126.313 112.919 126.728 112.439 127.02C111.958 127.307 111.425 127.453 110.834 127.453C109.729 127.453 108.84 127.081 108.168 126.337C107.495 125.593 107.159 124.609 107.159 123.385C107.159 122.147 107.486 121.158 108.139 120.428C108.792 119.694 109.672 119.332 110.767 119.332C111.411 119.332 111.968 119.473 112.439 119.755C112.914 120.038 113.294 120.457 113.587 121.017V119.6H114.899ZM113.621 123.437C113.621 122.585 113.385 121.897 112.91 121.384C112.439 120.866 111.819 120.607 111.06 120.607C110.272 120.607 109.657 120.847 109.21 121.323C108.768 121.798 108.547 122.467 108.547 123.324C108.547 124.232 108.768 124.939 109.215 125.428C109.662 125.923 110.291 126.167 111.108 126.167C111.891 126.167 112.506 125.927 112.953 125.447C113.4 124.967 113.621 124.294 113.621 123.437Z" fill="#646363"/>
<path d="M119.102 120.659H117.69V119.6H119.102V116.563H120.448V119.6H121.855V120.659H120.448V127.128H119.102V120.659Z" fill="#646363"/>
<path d="M124.483 117.415C124.483 117.156 124.579 116.935 124.762 116.751C124.949 116.568 125.18 116.474 125.449 116.474C125.713 116.474 125.939 116.568 126.126 116.756C126.314 116.944 126.41 117.166 126.41 117.429C126.41 117.684 126.318 117.905 126.131 118.088C125.948 118.272 125.718 118.362 125.449 118.362C125.18 118.362 124.949 118.272 124.762 118.088C124.579 117.91 124.483 117.684 124.483 117.415ZM124.795 119.6H126.121V127.128H124.795V119.6Z" fill="#646363"/>
<path d="M132.794 127.598L128.99 119.6H130.469L132.78 124.858L135.096 119.6H136.575L132.794 127.598Z" fill="#646363"/>
<path d="M146.525 119.6V127.128H145.247V125.763C144.94 126.313 144.546 126.728 144.065 127.02C143.585 127.307 143.052 127.453 142.456 127.453C141.356 127.453 140.462 127.081 139.79 126.337C139.117 125.593 138.776 124.609 138.776 123.385C138.776 122.147 139.103 121.158 139.761 120.428C140.414 119.694 141.293 119.332 142.389 119.332C143.032 119.332 143.59 119.473 144.065 119.755C144.541 120.038 144.921 120.457 145.214 121.017V119.6H146.525ZM145.247 123.437C145.247 122.585 145.012 121.897 144.536 121.384C144.061 120.866 143.446 120.607 142.687 120.607C141.899 120.607 141.279 120.847 140.837 121.323C140.395 121.798 140.174 122.467 140.174 123.324C140.174 124.232 140.395 124.939 140.842 125.428C141.289 125.923 141.918 126.167 142.735 126.167C143.518 126.167 144.133 125.927 144.579 125.447C145.026 124.967 145.247 124.294 145.247 123.437Z" fill="#646363"/>
<path d="M164.133 116.549V127.128H162.86V125.763C162.557 126.304 162.168 126.723 161.682 127.015C161.202 127.307 160.664 127.453 160.068 127.453C158.963 127.453 158.079 127.081 157.402 126.337C156.724 125.593 156.388 124.609 156.388 123.385C156.388 122.152 156.72 121.168 157.378 120.428C158.041 119.694 158.915 119.327 160.015 119.327C160.654 119.327 161.207 119.468 161.678 119.751C162.148 120.033 162.528 120.452 162.816 121.012V116.544H164.133V116.549ZM162.855 123.399C162.855 122.561 162.615 121.883 162.139 121.37C161.663 120.857 161.039 120.603 160.26 120.603C159.482 120.603 158.877 120.838 158.44 121.304C158.002 121.77 157.786 122.415 157.786 123.239C157.786 124.167 158.007 124.892 158.449 125.414C158.891 125.937 159.501 126.2 160.28 126.2C161.087 126.2 161.716 125.956 162.173 125.461C162.629 124.962 162.855 124.28 162.855 123.399Z" fill="#646363"/>
<path d="M175.048 123.559H168.961V123.672C168.961 124.477 169.196 125.132 169.667 125.626C170.138 126.12 170.748 126.37 171.507 126.37C172.021 126.37 172.487 126.233 172.901 125.965C173.319 125.692 173.684 125.282 174.001 124.736L175 125.395C174.616 126.078 174.121 126.591 173.52 126.935C172.92 127.278 172.228 127.453 171.44 127.453C170.268 127.453 169.321 127.076 168.601 126.318C167.88 125.56 167.52 124.567 167.52 123.338C167.52 122.156 167.875 121.191 168.596 120.443C169.312 119.689 170.234 119.317 171.358 119.317C172.497 119.317 173.395 119.67 174.058 120.386C174.721 121.102 175.053 122.072 175.053 123.31V123.559H175.048ZM173.636 122.514C173.592 121.85 173.367 121.337 172.958 120.979C172.55 120.621 171.993 120.443 171.291 120.443C170.652 120.443 170.124 120.631 169.696 121.008C169.269 121.384 169.024 121.888 168.956 122.519H173.636V122.514Z" fill="#646363"/>
<path d="M192.007 119.6V127.128H190.729V125.763C190.422 126.313 190.028 126.728 189.547 127.02C189.067 127.307 188.534 127.453 187.938 127.453C186.838 127.453 185.944 127.081 185.272 126.337C184.594 125.593 184.263 124.609 184.263 123.385C184.263 122.147 184.589 121.158 185.243 120.428C185.896 119.694 186.775 119.332 187.871 119.332C188.514 119.332 189.072 119.473 189.547 119.755C190.018 120.038 190.403 120.457 190.691 121.017V119.6H192.007ZM190.734 123.437C190.734 122.585 190.494 121.897 190.023 121.384C189.547 120.866 188.932 120.607 188.173 120.607C187.385 120.607 186.771 120.847 186.324 121.323C185.882 121.798 185.661 122.467 185.661 123.324C185.661 124.232 185.882 124.939 186.329 125.428C186.775 125.923 187.405 126.167 188.221 126.167C189.004 126.167 189.619 125.927 190.061 125.447C190.508 124.967 190.734 124.294 190.734 123.437Z" fill="#646363"/>
<path d="M197.297 115.819V120.758C197.623 120.278 198.022 119.915 198.488 119.68C198.954 119.444 199.492 119.327 200.102 119.327C201.006 119.327 201.717 119.562 202.226 120.033C202.735 120.508 202.99 121.163 202.99 122.001V127.128H201.645V122.693C201.645 121.93 201.481 121.365 201.154 120.993C200.828 120.621 200.323 120.438 199.641 120.438C199.247 120.438 198.892 120.508 198.57 120.65C198.248 120.791 197.984 120.989 197.767 121.248C197.604 121.445 197.489 121.671 197.417 121.921C197.345 122.175 197.311 122.613 197.311 123.239V127.132H196.014V115.824" fill="#646363"/>
<path d="M206.353 123.385C206.353 122.829 206.453 122.307 206.66 121.817C206.867 121.328 207.169 120.89 207.568 120.504C207.967 120.118 208.418 119.826 208.923 119.628C209.427 119.426 209.965 119.327 210.532 119.327C211.09 119.327 211.623 119.426 212.122 119.633C212.627 119.835 213.079 120.132 213.487 120.522C213.886 120.899 214.188 121.337 214.395 121.827C214.601 122.316 214.702 122.834 214.702 123.385C214.702 123.936 214.601 124.449 214.395 124.938C214.188 125.423 213.886 125.857 213.487 126.233C213.079 126.629 212.622 126.93 212.113 127.137C211.608 127.344 211.08 127.452 210.532 127.452C209.965 127.452 209.432 127.349 208.923 127.142C208.414 126.935 207.962 126.643 207.568 126.257C207.169 125.861 206.867 125.423 206.66 124.938C206.453 124.458 206.353 123.94 206.353 123.385ZM207.741 123.385C207.741 124.18 208.015 124.854 208.558 125.405C209.101 125.955 209.759 126.233 210.532 126.233C211.301 126.233 211.95 125.955 212.488 125.405C213.026 124.854 213.29 124.18 213.29 123.385C213.29 122.589 213.021 121.916 212.488 121.365C211.95 120.814 211.301 120.537 210.532 120.537C209.754 120.537 209.096 120.814 208.553 121.365C208.015 121.916 207.741 122.589 207.741 123.385Z" fill="#646363"/>
<path d="M218.147 127.128V119.6H219.314V121.163C219.665 120.509 220.045 120.042 220.439 119.765C220.837 119.482 221.323 119.346 221.889 119.346C222.048 119.346 222.197 119.36 222.341 119.383C222.485 119.407 222.634 119.445 222.778 119.496L222.341 120.654C222.187 120.607 222.048 120.57 221.914 120.546C221.779 120.518 221.649 120.509 221.529 120.509C220.833 120.509 220.314 120.753 219.968 121.243C219.622 121.733 219.449 122.472 219.449 123.46V127.128H218.147Z" fill="#646363"/>
<path d="M225.56 127.128V119.6H226.727V121.163C227.078 120.509 227.453 120.042 227.852 119.765C228.25 119.482 228.736 119.346 229.307 119.346C229.466 119.346 229.615 119.36 229.764 119.383C229.908 119.407 230.052 119.445 230.196 119.496L229.764 120.654C229.61 120.607 229.471 120.57 229.331 120.546C229.197 120.518 229.072 120.509 228.947 120.509C228.25 120.509 227.732 120.753 227.386 121.243C227.04 121.733 226.867 122.472 226.867 123.46V127.128H225.56Z" fill="#646363"/>
<path d="M232.334 123.385C232.334 122.829 232.44 122.307 232.646 121.817C232.853 121.328 233.156 120.89 233.554 120.504C233.953 120.118 234.405 119.826 234.909 119.628C235.414 119.426 235.947 119.327 236.523 119.327C237.081 119.327 237.614 119.426 238.114 119.633C238.613 119.835 239.07 120.132 239.478 120.522C239.877 120.899 240.179 121.337 240.386 121.827C240.592 122.316 240.698 122.834 240.698 123.385C240.698 123.936 240.592 124.449 240.386 124.938C240.179 125.423 239.877 125.857 239.478 126.233C239.07 126.629 238.613 126.93 238.109 127.137C237.599 127.344 237.076 127.452 236.523 127.452C235.956 127.452 235.418 127.349 234.914 127.142C234.409 126.935 233.953 126.643 233.559 126.257C233.16 125.861 232.862 125.423 232.651 124.938C232.44 124.458 232.334 123.94 232.334 123.385ZM233.727 123.385C233.727 124.18 234.001 124.854 234.544 125.405C235.087 125.955 235.745 126.233 236.518 126.233C237.282 126.233 237.936 125.955 238.474 125.405C239.012 124.854 239.281 124.18 239.281 123.385C239.281 122.589 239.012 121.916 238.474 121.365C237.936 120.814 237.282 120.537 236.518 120.537C235.74 120.537 235.082 120.814 234.539 121.365C234.001 121.916 233.727 122.589 233.727 123.385Z" fill="#646363"/>
<path d="M250.936 129.359L252.334 126.388L249.322 119.6H250.84L253.074 125.004L255.443 119.6H256.889L252.392 129.359H250.936Z" fill="#646363"/>
<path d="M271.849 125.343V126.84C271.503 127.043 271.114 127.194 270.677 127.297C270.244 127.401 269.778 127.448 269.274 127.448C268.087 127.448 267.131 127.081 266.406 126.341C265.68 125.607 265.32 124.637 265.32 123.432C265.32 122.227 265.695 121.238 266.444 120.475C267.194 119.708 268.155 119.327 269.322 119.327C269.75 119.327 270.163 119.369 270.571 119.458C270.975 119.548 271.359 119.675 271.715 119.845V121.229C271.378 121.012 271.032 120.852 270.672 120.739C270.312 120.626 269.951 120.57 269.581 120.57C268.717 120.57 268.03 120.833 267.506 121.365C266.982 121.892 266.723 122.599 266.723 123.474C266.723 124.246 266.982 124.896 267.506 125.419C268.03 125.941 268.688 126.2 269.476 126.2C269.874 126.2 270.264 126.134 270.643 125.998C271.032 125.857 271.431 125.64 271.849 125.343Z" fill="#646363"/>
<path d="M275.073 127.128V119.6H276.24V121.163C276.591 120.509 276.97 120.042 277.364 119.765C277.763 119.482 278.244 119.346 278.815 119.346C278.974 119.346 279.123 119.36 279.267 119.383C279.411 119.407 279.56 119.445 279.704 119.496L279.267 120.654C279.118 120.607 278.974 120.57 278.839 120.546C278.705 120.518 278.575 120.509 278.455 120.509C277.758 120.509 277.239 120.753 276.894 121.243C276.543 121.733 276.375 122.472 276.375 123.46V127.128H275.073Z" fill="#646363"/>
<path d="M289.332 123.559H283.24V123.672C283.24 124.477 283.475 125.131 283.946 125.626C284.417 126.12 285.027 126.37 285.786 126.37C286.305 126.37 286.766 126.233 287.18 125.965C287.593 125.692 287.958 125.282 288.28 124.736L289.279 125.395C288.895 126.078 288.4 126.591 287.799 126.935C287.199 127.278 286.507 127.452 285.719 127.452C284.547 127.452 283.6 127.076 282.88 126.318C282.159 125.56 281.794 124.566 281.794 123.338C281.794 122.156 282.154 121.196 282.87 120.442C283.586 119.689 284.508 119.317 285.633 119.317C286.771 119.317 287.67 119.675 288.333 120.386C288.996 121.101 289.327 122.071 289.327 123.309V123.559H289.332ZM287.919 122.514C287.876 121.85 287.65 121.337 287.242 120.979C286.838 120.621 286.281 120.442 285.575 120.442C284.936 120.442 284.407 120.631 283.98 121.007C283.552 121.384 283.307 121.888 283.24 122.519H287.919V122.514ZM284.206 117.538L287.189 117.09L287.958 118.371L284.475 118.357L284.206 117.538Z" fill="#646363"/>
<path d="M299.844 116.549V127.128H298.566V125.763C298.268 126.304 297.874 126.723 297.389 127.015C296.908 127.307 296.37 127.453 295.779 127.453C294.674 127.453 293.785 127.081 293.113 126.337C292.435 125.593 292.099 124.609 292.099 123.385C292.099 122.152 292.431 121.168 293.089 120.428C293.747 119.694 294.626 119.327 295.726 119.327C296.365 119.327 296.918 119.468 297.389 119.751C297.859 120.033 298.239 120.452 298.532 121.012V116.544H299.844V116.549ZM298.566 123.399C298.566 122.561 298.33 121.883 297.85 121.37C297.374 120.857 296.75 120.603 295.967 120.603C295.188 120.603 294.583 120.838 294.146 121.304C293.709 121.77 293.492 122.415 293.492 123.239C293.492 124.167 293.713 124.892 294.155 125.414C294.597 125.937 295.207 126.2 295.986 126.2C296.793 126.2 297.422 125.956 297.879 125.461C298.34 124.962 298.566 124.28 298.566 123.399Z" fill="#646363"/>
<path d="M303.653 117.415C303.653 117.156 303.745 116.935 303.937 116.751C304.124 116.568 304.35 116.474 304.619 116.474C304.883 116.474 305.109 116.568 305.296 116.756C305.484 116.944 305.58 117.166 305.58 117.429C305.58 117.684 305.489 117.905 305.306 118.088C305.119 118.272 304.893 118.362 304.624 118.362C304.355 118.362 304.129 118.272 303.942 118.088C303.749 117.91 303.653 117.684 303.653 117.415ZM303.966 119.6H305.292V127.128H303.966V119.6Z" fill="#646363"/>
<path d="M309.639 120.659H308.232V119.6H309.639V116.563H310.985V119.6H312.397V120.659H310.985V127.128H309.639V120.659Z" fill="#646363"/>
<path d="M314.646 123.385C314.646 122.829 314.751 122.307 314.958 121.817C315.169 121.328 315.472 120.89 315.866 120.504C316.265 120.118 316.716 119.826 317.221 119.628C317.725 119.426 318.263 119.327 318.835 119.327C319.392 119.327 319.925 119.426 320.425 119.633C320.925 119.835 321.381 120.132 321.789 120.522C322.183 120.899 322.486 121.337 322.697 121.827C322.904 122.316 323.01 122.834 323.01 123.385C323.01 123.936 322.909 124.449 322.697 124.938C322.491 125.423 322.188 125.857 321.789 126.233C321.381 126.629 320.925 126.93 320.415 127.137C319.911 127.344 319.383 127.452 318.835 127.452C318.268 127.452 317.73 127.349 317.225 127.142C316.716 126.935 316.269 126.643 315.871 126.257C315.477 125.861 315.174 125.423 314.963 124.938C314.746 124.458 314.646 123.94 314.646 123.385ZM316.039 123.385C316.039 124.18 316.313 124.854 316.855 125.405C317.398 125.955 318.057 126.233 318.83 126.233C319.594 126.233 320.247 125.955 320.785 125.405C321.323 124.854 321.592 124.18 321.592 123.385C321.592 122.589 321.323 121.916 320.785 121.365C320.247 120.814 319.594 120.537 318.83 120.537C318.052 120.537 317.394 120.814 316.851 121.365C316.308 121.916 316.039 122.589 316.039 123.385Z" fill="#646363"/>
<path d="M207.909 109.374H194.909V57.7239H177.542V47.6631H227.645L223.091 57.7239H207.909V109.374Z" fill="#EF7D00"/>
<path d="M248.049 109.374H234.765V56.4574C234.765 55.6665 234.683 54.8238 234.53 53.9199C234.371 53.0207 234.131 52.1733 233.819 51.3823C233.122 49.4097 232.204 48.1715 231.066 47.6631H248.054V109.374H248.049Z" fill="#EF7D00"/>
<path d="M312.195 54.8471C319.027 60.8214 322.443 68.7401 322.443 78.6032C322.443 88.5228 319.027 96.4414 312.195 102.359C305.868 107.712 298.277 110.391 289.423 110.391C280.631 110.391 273.103 107.684 266.838 102.275C260.007 96.4697 256.591 88.551 256.591 78.5184C256.591 68.5989 260.007 60.6802 266.838 54.7624C272.973 49.466 280.502 46.8154 289.423 46.8154C298.407 46.8154 305.998 49.4942 312.195 54.8471ZM271.916 87.6471C272.959 90.2976 274.496 92.6045 276.519 94.5771C280.127 98.1834 284.456 99.9865 289.519 99.9865C294.578 99.9865 298.945 98.1834 302.616 94.5771C306.666 90.5189 308.688 85.1943 308.688 78.5985C308.688 71.8944 306.661 66.5651 302.616 62.6199C298.883 59.0136 294.516 57.2105 289.519 57.2105C284.393 57.2105 279.997 59.0136 276.332 62.6199C272.349 66.5651 270.355 71.918 270.355 78.6832C270.35 82.0117 270.874 84.9965 271.916 87.6471Z" fill="#EF7D00"/>
<path d="M149.96 47.6626C158.44 47.6626 164.921 49.3245 169.413 52.6483C174.029 55.972 176.34 60.6517 176.34 66.6825C176.34 72.8828 174.029 77.925 169.413 81.8137C164.541 85.9849 157.868 88.0705 149.388 88.0705H146.732V109.374H129.84C130.219 109.091 130.628 108.644 131.075 108.023C131.516 107.401 131.896 106.7 132.213 105.909C133.035 104.106 133.448 102.303 133.448 100.499V56.457C133.448 55.6095 133.366 54.7527 133.212 53.877C133.054 53.0061 132.814 52.1728 132.501 51.3818C131.805 49.4092 130.887 48.1711 129.749 47.6626H149.96ZM146.732 78.1792H148.725C152.838 78.1792 156.158 77.2235 158.689 75.3027C161.284 73.3301 162.581 70.7078 162.581 67.4405C162.581 60.7364 158.247 57.3797 149.581 57.3797H146.732V78.1792Z" fill="black"/>
</g>
<defs>
<clipPath id="clip0_110_584">
<rect width="323" height="137" fill="white"/>
</clipPath>
</defs>
</svg>
