<svg width="70" height="71" viewBox="0 0 70 71" fill="none" xmlns="http://www.w3.org/2000/svg">
<circle cx="35" cy="35.5" r="35" fill="#A5A5A5" fill-opacity="0.15"/>
<g clip-path="url(#clip0_110_798)">
<path d="M49.9094 54.5H20.8178C17.9438 54.5 15.6184 52.2035 15.6184 49.3652V20.6348C15.6184 17.7965 17.9498 15.5 20.8178 15.5H49.9094C52.7834 15.5 55.1088 17.7965 55.1088 20.6348V49.3652C55.1088 52.1976 52.7834 54.5 49.9094 54.5Z" fill="#686565"/>
<path d="M55.8005 54.5H26.7089C23.8349 54.5 21.5095 52.2035 21.5095 49.3652V20.6348C21.5095 17.7965 23.8349 15.5 26.7089 15.5H55.8005C58.6745 15.5 60.9999 17.7965 60.9999 20.6348V49.3652C60.9999 52.1976 58.6686 54.5 55.8005 54.5Z" fill="#969595"/>
<path d="M23.1851 53.0338C24.151 53.9407 25.4509 54.5001 26.8878 54.5001H55.6098C58.5851 54.5001 60.994 52.1211 60.994 49.1827V20.8175C60.994 19.3512 60.3918 18.0263 59.4199 17.0605L23.1851 53.0338Z" fill="#686565"/>
<path d="M50.6965 48.6821H28.4619C26.9474 48.6821 25.7251 47.469 25.7251 45.9792V24.0207C25.7251 22.525 26.9534 21.3179 28.4619 21.3179H50.6965C52.2111 21.3179 53.4334 22.5309 53.4334 24.0207V45.9792C53.4334 47.4749 52.2111 48.6821 50.6965 48.6821Z" fill="#686565"/>
<path d="M52.3721 48.6821H30.1375C28.623 48.6821 27.4006 47.469 27.4006 45.9792V24.0207C27.4006 22.525 28.6289 21.3179 30.1375 21.3179H52.3721C53.8866 21.3179 55.1089 22.5309 55.1089 24.0207V45.9792C55.1089 47.4749 53.8866 48.6821 52.3721 48.6821Z" fill="#A5A5A5"/>
<path d="M52.2766 21.3179H50.6011C52.1692 21.3179 53.4393 22.5721 53.4393 24.1208V45.885C53.4393 47.4337 52.1692 48.6879 50.6011 48.6879H52.2766C53.8447 48.6879 55.1148 47.4337 55.1148 45.885V24.1149C55.1088 22.5662 53.8388 21.3179 52.2766 21.3179Z" fill="#8AE1FF"/>
<path d="M30.2328 48.6823H52.2767C53.8448 48.6823 55.1149 47.428 55.1149 45.8793V24.1152C55.1149 23.3497 54.8048 22.6607 54.298 22.1543L28.3188 47.9403C28.8257 48.3997 29.4935 48.6823 30.2328 48.6823Z" fill="#686565"/>
<path d="M54.2979 22.1543L53.2664 23.1789C53.3737 23.4733 53.4393 23.7854 53.4393 24.1152V45.8852C53.4393 47.4339 52.1692 48.6882 50.6011 48.6882H52.2766C53.8447 48.6882 55.1148 47.4339 55.1148 45.8852V24.1152C55.1088 23.3497 54.7988 22.6607 54.2979 22.1543Z" fill="#A5A5A5"/>
<path d="M54.5841 36.8755C54.5841 39.2662 52.6224 41.2036 50.2016 41.2036C47.7808 41.2036 45.8191 39.2662 45.8191 36.8755C45.8191 34.4847 47.7808 32.5474 50.2016 32.5474C52.6224 32.5474 54.5841 34.4847 54.5841 36.8755Z" fill="#686565"/>
<path d="M54.5841 35.6035C54.5841 37.9942 52.6224 39.9316 50.2016 39.9316C47.7808 39.9316 45.8191 37.9942 45.8191 35.6035C45.8191 33.2127 47.7808 31.2754 50.2016 31.2754C52.6224 31.2754 54.5841 33.2127 54.5841 35.6035Z" fill="#636161"/>
<path d="M53.6302 35.6037C53.6302 37.4704 52.0978 38.9896 50.2017 38.9896C48.3056 38.9896 46.7732 37.4763 46.7732 35.6037C46.7732 33.737 48.3056 32.2178 50.2017 32.2178C52.0978 32.2178 53.6302 33.7311 53.6302 35.6037Z" fill="#D9EAFB"/>
<path d="M52.6404 35.6032C52.6404 36.9341 51.5492 38.0117 50.2016 38.0117C48.8541 38.0117 47.7629 36.9341 47.7629 35.6032C47.7629 34.2724 48.8541 33.1948 50.2016 33.1948C51.5492 33.1948 52.6404 34.2724 52.6404 35.6032Z" fill="#636161"/>
<path d="M50.2017 32.7183V33.1952" stroke="#636161" stroke-width="0.7703" stroke-miterlimit="10" stroke-linecap="round" stroke-linejoin="round"/>
<path d="M50.2017 38V38.477" stroke="#636161" stroke-width="0.7703" stroke-miterlimit="10" stroke-linecap="round" stroke-linejoin="round"/>
<path d="M52.6343 35.5977H53.1232" stroke="#636161" stroke-width="0.7703" stroke-miterlimit="10" stroke-linecap="round" stroke-linejoin="round"/>
<path d="M48.1387 33.5601L48.4845 33.9016" stroke="#636161" stroke-width="0.7703" stroke-miterlimit="10" stroke-linecap="round" stroke-linejoin="round"/>
<path d="M51.9248 37.2935L52.2647 37.635" stroke="#636161" stroke-width="0.7703" stroke-miterlimit="10" stroke-linecap="round" stroke-linejoin="round"/>
<path d="M48.1387 37.635L48.4845 37.2935" stroke="#636161" stroke-width="0.7703" stroke-miterlimit="10" stroke-linecap="round" stroke-linejoin="round"/>
<path d="M51.9248 33.9016L52.2647 33.5601" stroke="#636161" stroke-width="0.7703" stroke-miterlimit="10" stroke-linecap="round" stroke-linejoin="round"/>
<path d="M47.2859 35.5977H47.7748" stroke="#636161" stroke-width="0.7703" stroke-miterlimit="10" stroke-linecap="round" stroke-linejoin="round"/>
<path d="M28.4501 32.5472H24.5028C23.7754 32.5472 23.1851 31.9643 23.1851 31.2458V28.4606C23.1851 27.7421 23.7754 27.1592 24.5028 27.1592H28.4501C29.1775 27.1592 29.7678 27.7421 29.7678 28.4606V31.2458C29.7678 31.9643 29.1775 32.5472 28.4501 32.5472Z" fill="#C3D4E2"/>
<path d="M29.3683 32.5472H25.421C24.6936 32.5472 24.1033 31.9643 24.1033 31.2458V28.4606C24.1033 27.7421 24.6936 27.1592 25.421 27.1592H29.3683C30.0957 27.1592 30.686 27.7421 30.686 28.4606V31.2458C30.686 31.9643 30.0957 32.5472 29.3683 32.5472Z" fill="#D9EAFB"/>
<path d="M25.1348 32.5004C25.2421 32.5298 25.3554 32.5475 25.4746 32.5475H29.3265C30.0778 32.5475 30.6919 31.9469 30.6919 31.199V28.5079C30.6919 28.2017 30.5846 27.9191 30.4057 27.6953L25.1348 32.5004Z" fill="#C3D4E2"/>
<path d="M25.725 29.1558C25.949 29.1558 26.1305 28.9766 26.1305 28.7554C26.1305 28.5343 25.949 28.355 25.725 28.355C25.5011 28.355 25.3196 28.5343 25.3196 28.7554C25.3196 28.9766 25.5011 29.1558 25.725 29.1558Z" fill="#686565"/>
<path d="M29.267 29.1558C29.491 29.1558 29.6725 28.9766 29.6725 28.7554C29.6725 28.5343 29.491 28.355 29.267 28.355C29.0431 28.355 28.8616 28.5343 28.8616 28.7554C28.8616 28.9766 29.0431 29.1558 29.267 29.1558Z" fill="#686565"/>
<path d="M26.1247 19.2568C26.1247 19.6866 25.7729 20.0341 25.3376 20.0341C24.9023 20.0341 24.5505 19.6866 24.5505 19.2568C24.5505 18.8269 24.9023 18.4795 25.3376 18.4795C25.7788 18.4854 26.1247 18.8328 26.1247 19.2568Z" fill="#D9EAFB"/>
<path d="M20.9312 50.3193H10.109C9.4949 50.3193 9 50.8081 9 51.4146V53.4049C9 54.0115 9.4949 54.5002 10.109 54.5002H20.9312C21.5454 54.5002 22.0402 54.0115 22.0402 53.4049V51.4146C22.0402 50.8081 21.5454 50.3193 20.9312 50.3193Z" fill="#FDEE35"/>
<path d="M21.4975 50.4902L9.54248 54.3237C9.72136 54.4297 9.92409 54.5004 10.1447 54.5004H20.8893C21.5214 54.5004 22.0342 53.9939 22.0342 53.3697V51.456C22.0401 51.0438 21.8195 50.6904 21.4975 50.4902Z" fill="#FFB531"/>
<path d="M33.9715 50.3193H23.1493C22.5352 50.3193 22.0403 50.8081 22.0403 51.4146V53.4049C22.0403 54.0115 22.5352 54.5002 23.1493 54.5002H33.9715C34.5856 54.5002 35.0805 54.0115 35.0805 53.4049V51.4146C35.0805 50.8081 34.5797 50.3193 33.9715 50.3193Z" fill="#FDEE35"/>
<path d="M34.5378 50.4902L22.5828 54.3237C22.7616 54.4297 22.9644 54.5004 23.185 54.5004H33.9296C34.5617 54.5004 35.0744 53.9939 35.0744 53.3697V51.456C35.0804 51.0438 34.8598 50.6904 34.5378 50.4902Z" fill="#FFB531"/>
<path d="M33.9715 46.1382H23.1493C22.5352 46.1382 22.0403 46.6269 22.0403 47.2335V49.2238C22.0403 49.8303 22.5352 50.3191 23.1493 50.3191H33.9715C34.5856 50.3191 35.0805 49.8303 35.0805 49.2238V47.2335C35.0805 46.6269 34.5797 46.1382 33.9715 46.1382Z" fill="#FDEE35"/>
<path d="M34.5378 46.3091L22.5828 50.1425C22.7616 50.2485 22.9644 50.3192 23.185 50.3192H33.9296C34.5617 50.3192 35.0744 49.8128 35.0744 49.1886V47.2748C35.0804 46.8626 34.8598 46.5093 34.5378 46.3091Z" fill="#FFB531"/>
<path d="M33.9715 41.9575H23.1493C22.5352 41.9575 22.0403 42.4463 22.0403 43.0528V45.0431C22.0403 45.6497 22.5352 46.1384 23.1493 46.1384H33.9715C34.5856 46.1384 35.0805 45.6497 35.0805 45.0431V43.0528C35.0805 42.4463 34.5797 41.9575 33.9715 41.9575Z" fill="#FDEE35"/>
<path d="M34.5378 42.1284L22.5828 45.9619C22.7616 46.0679 22.9644 46.1385 23.185 46.1385H33.9296C34.5617 46.1385 35.0744 45.6321 35.0744 45.0079V43.0941C35.0804 42.6819 34.8598 42.3286 34.5378 42.1284Z" fill="#FFB531"/>
<path d="M20.9312 46.1382H10.109C9.4949 46.1382 9 46.6269 9 47.2335V49.2238C9 49.8303 9.4949 50.3191 10.109 50.3191H20.9312C21.5454 50.3191 22.0402 49.8303 22.0402 49.2238V47.2335C22.0402 46.6269 21.5454 46.1382 20.9312 46.1382Z" fill="#FDEE35"/>
<path d="M21.4975 46.3091L9.54248 50.1425C9.72136 50.2485 9.92409 50.3192 10.1447 50.3192H20.8893C21.5214 50.3192 22.0342 49.8128 22.0342 49.1886V47.2748C22.0401 46.8626 21.8195 46.5093 21.4975 46.3091Z" fill="#FFB531"/>
<path d="M20.9312 41.9575H10.109C9.4949 41.9575 9 42.4463 9 43.0528V45.0431C9 45.6497 9.4949 46.1384 10.109 46.1384H20.9312C21.5454 46.1384 22.0402 45.6497 22.0402 45.0431V43.0528C22.0402 42.4463 21.5454 41.9575 20.9312 41.9575Z" fill="#FDEE35"/>
<path d="M21.4975 42.1284L9.54248 45.9619C9.72136 46.0679 9.92409 46.1385 10.1447 46.1385H20.8893C21.5214 46.1385 22.0342 45.6321 22.0342 45.0079V43.0941C22.0401 42.6819 21.8195 42.3286 21.4975 42.1284Z" fill="#FFB531"/>
<path d="M27.9981 37.4369C28.7715 34.2023 26.7433 30.9609 23.468 30.1971C20.1927 29.4333 16.9106 31.4364 16.1372 34.671C15.3638 37.9056 17.392 41.147 20.6673 41.9108C23.9426 42.6746 27.2247 40.6716 27.9981 37.4369Z" fill="#FFB531"/>
<path d="M26.3752 36.0509C26.3752 38.4004 24.4492 40.3024 22.0701 40.3024C19.6911 40.3024 17.7651 38.4004 17.7651 36.0509C17.7651 33.7013 19.6911 31.7993 22.0701 31.7993C24.4433 31.7934 26.3752 33.7013 26.3752 36.0509Z" fill="#FDEE35"/>
<path d="M21.7004 38.8249V38.1771C21.2413 38.1595 20.7941 38.0358 20.5317 37.8827L20.7404 37.0877C21.0266 37.2408 21.4381 37.3881 21.8853 37.3881C22.2788 37.3881 22.5471 37.2408 22.5471 36.9641C22.5471 36.705 22.3265 36.5401 21.8197 36.3752C21.0863 36.1279 20.5794 35.7923 20.5794 35.1327C20.5794 34.5321 21.0087 34.0669 21.7422 33.9256V33.2778H22.4159V33.8785C22.875 33.8961 23.1851 33.9962 23.4117 34.1022L23.209 34.8677C23.0301 34.7912 22.7141 34.6381 22.2192 34.6381C21.772 34.6381 21.6289 34.8265 21.6289 35.0208C21.6289 35.2446 21.8674 35.3859 22.4517 35.6038C23.2686 35.8865 23.6025 36.2633 23.6025 36.8757C23.6025 37.4823 23.1672 37.9946 22.3802 38.13V38.8249H21.7004Z" fill="#D86E1E"/>
<g opacity="0.4">
<path d="M26.2855 31.7173L17.6218 40.1556C18.7309 41.3274 20.311 42.0635 22.064 42.0635C25.4269 42.0635 28.1578 39.3724 28.1578 36.0454C28.1578 34.3436 27.4363 32.8126 26.2855 31.7173Z" fill="#D37753"/>
</g>
</g>
<defs>
<clipPath id="clip0_110_798">
<rect width="52" height="39" fill="white" transform="translate(9 15.5)"/>
</clipPath>
</defs>
</svg>
