<svg width="70" height="71" viewBox="0 0 70 71" fill="none" xmlns="http://www.w3.org/2000/svg">
<circle cx="35" cy="35.5" r="35" fill="#A5A5A5" fill-opacity="0.15"/>
<g clip-path="url(#clip0_110_735)">
<path d="M43.5548 13.5H17.2144V57.4749H43.5548V13.5Z" fill="#F4E9F1"/>
<path d="M43.5548 13.5H17.2144V18.3555H43.5548V13.5Z" fill="#EF7D00"/>
<path d="M21.3232 21.4219H35.5579" stroke="#EF7D00" stroke-miterlimit="10" stroke-linecap="round" stroke-linejoin="round"/>
<path d="M21.3232 23.8125H35.5579" stroke="#EF7D00" stroke-miterlimit="10" stroke-linecap="round" stroke-linejoin="round"/>
<path d="M21.3232 26.1973H35.5579" stroke="#EF7D00" stroke-miterlimit="10" stroke-linecap="round" stroke-linejoin="round"/>
<path d="M21.3232 28.5825H35.5579" stroke="#EF7D00" stroke-miterlimit="10" stroke-linecap="round" stroke-linejoin="round"/>
<path d="M21.3232 34.3047H35.5579" stroke="#EF7D00" stroke-miterlimit="10" stroke-linecap="round" stroke-linejoin="round"/>
<path d="M21.3232 36.6953H35.5579" stroke="#EF7D00" stroke-miterlimit="10" stroke-linecap="round" stroke-linejoin="round"/>
<path d="M21.3232 39.0049H35.5579" stroke="#EF7D00" stroke-miterlimit="10" stroke-linecap="round" stroke-linejoin="round"/>
<path d="M21.3232 41.395H35.5579" stroke="#EF7D00" stroke-miterlimit="10" stroke-linecap="round" stroke-linejoin="round"/>
<path d="M56.19 57.4752H36.7711C35.7729 57.4752 34.9622 56.7386 34.9622 55.8316V28.2471C34.9622 27.3401 35.7729 26.6035 36.7711 26.6035H56.19C57.1883 26.6035 57.999 27.3401 57.999 28.2471V55.8316C57.999 56.7386 57.1883 57.4752 56.19 57.4752Z" fill="#8C8581"/>
<path d="M35.4143 56.8686C35.7562 57.2344 36.2636 57.4749 36.8372 57.4749H56.1293C57.1661 57.4749 58.0044 56.7133 58.0044 55.7713V28.302C58.0044 27.8811 57.8279 27.5002 57.5522 27.2046L35.4143 56.8686Z" fill="#646363"/>
<path d="M55.0373 30.0107H37.8135V36.7904H55.0373V30.0107Z" fill="#333333"/>
<path d="M41.106 39.0454H37.8135V42.0369H41.106V39.0454Z" fill="white"/>
<path d="M45.7664 39.0454H42.4739V42.0369H45.7664V39.0454Z" fill="white"/>
<path d="M50.4378 39.0454H47.1453V42.0369H50.4378V39.0454Z" fill="white"/>
<path d="M41.106 43.2192H37.8135V46.2107H41.106V43.2192Z" fill="white"/>
<path d="M45.7664 43.2192H42.4739V46.2107H45.7664V43.2192Z" fill="white"/>
<path d="M50.4378 43.2192H47.1453V46.2107H50.4378V43.2192Z" fill="white"/>
<path d="M41.106 47.3984H37.8135V50.3899H41.106V47.3984Z" fill="white"/>
<path d="M45.7664 47.3984H42.4739V50.3899H45.7664V47.3984Z" fill="white"/>
<path d="M50.4378 47.3984H47.1453V50.3899H50.4378V47.3984Z" fill="white"/>
<path d="M41.106 51.5776H37.8135V54.5691H41.106V51.5776Z" fill="white"/>
<path d="M45.7664 51.5776H42.4739V54.5691H45.7664V51.5776Z" fill="white"/>
<path d="M50.4378 51.5776H47.1453V54.5691H50.4378V51.5776Z" fill="white"/>
<path d="M55.0374 39.0454H51.7449V42.0369H55.0374V39.0454Z" fill="#EF7D00"/>
<path d="M55.0374 43.2192H51.7449V46.2107H55.0374V43.2192Z" fill="#EF7D00"/>
<path d="M55.0374 47.3984H51.7449V54.5689H55.0374V47.3984Z" fill="#EF7D00"/>
<path d="M24.2297 54.2026H14.9476C14.4237 54.2026 13.999 54.5885 13.999 55.0645V56.6379C13.999 57.1139 14.4237 57.4998 14.9476 57.4998H24.2297C24.7536 57.4998 25.1783 57.1139 25.1783 56.6379V55.0645C25.1783 54.5885 24.7536 54.2026 24.2297 54.2026Z" fill="#FDEE35"/>
<path d="M24.7151 54.3379L14.4624 57.3644C14.6113 57.4496 14.7878 57.4997 14.9808 57.4997H24.1912C24.7316 57.4997 25.1729 57.0989 25.1729 56.6078V55.0945C25.1784 54.7738 24.9909 54.4982 24.7151 54.3379Z" fill="#FFB531"/>
<path d="M35.4089 54.2026H26.1268C25.6029 54.2026 25.1782 54.5885 25.1782 55.0645V56.6379C25.1782 57.1139 25.6029 57.4998 26.1268 57.4998H35.4089C35.9328 57.4998 36.3575 57.1139 36.3575 56.6379V55.0645C36.3575 54.5885 35.9328 54.2026 35.4089 54.2026Z" fill="#FDEE35"/>
<path d="M35.8942 54.3379L25.647 57.3594C25.7959 57.4446 25.9724 57.4947 26.1654 57.4947H35.3757C35.9162 57.4947 36.3574 57.0938 36.3574 56.6028V55.0895C36.3574 54.7738 36.1699 54.4982 35.8942 54.3379Z" fill="#FFB531"/>
<path d="M35.4089 50.9058H26.1268C25.6029 50.9058 25.1782 51.2916 25.1782 51.7676V53.341C25.1782 53.817 25.6029 54.2029 26.1268 54.2029H35.4089C35.9328 54.2029 36.3575 53.817 36.3575 53.341V51.7676C36.3575 51.2916 35.9328 50.9058 35.4089 50.9058Z" fill="#FDEE35"/>
<path d="M35.8942 51.041L25.647 54.0625C25.7959 54.1477 25.9724 54.1978 26.1654 54.1978H35.3757C35.9162 54.1978 36.3574 53.797 36.3574 53.3059V51.7926C36.3574 51.477 36.1699 51.2014 35.8942 51.041Z" fill="#FFB531"/>
<path d="M35.4089 47.6084H26.1268C25.6029 47.6084 25.1782 47.9942 25.1782 48.4703V50.0437C25.1782 50.5197 25.6029 50.9055 26.1268 50.9055H35.4089C35.9328 50.9055 36.3575 50.5197 36.3575 50.0437V48.4703C36.3575 47.9942 35.9328 47.6084 35.4089 47.6084Z" fill="#FDEE35"/>
<path d="M35.8942 47.7437L25.647 50.7652C25.7959 50.8504 25.9724 50.9005 26.1654 50.9005H35.3757C35.9162 50.9005 36.3574 50.4996 36.3574 50.0085V48.4953C36.3574 48.1796 36.1699 47.899 35.8942 47.7437Z" fill="#FFB531"/>
<path d="M24.2297 50.9058H14.9476C14.4237 50.9058 13.999 51.2916 13.999 51.7676V53.341C13.999 53.817 14.4237 54.2029 14.9476 54.2029H24.2297C24.7536 54.2029 25.1783 53.817 25.1783 53.341V51.7676C25.1783 51.2916 24.7536 50.9058 24.2297 50.9058Z" fill="#FDEE35"/>
<path d="M24.7151 51.041L14.4624 54.0676C14.6113 54.1527 14.7878 54.2028 14.9808 54.2028H24.1912C24.7316 54.2028 25.1729 53.802 25.1729 53.3109V51.7977C25.1784 51.477 24.9909 51.2014 24.7151 51.041Z" fill="#FFB531"/>
<path d="M24.2297 47.6084H14.9476C14.4237 47.6084 13.999 47.9942 13.999 48.4703V50.0437C13.999 50.5197 14.4237 50.9055 14.9476 50.9055H24.2297C24.7536 50.9055 25.1783 50.5197 25.1783 50.0437V48.4703C25.1783 47.9942 24.7536 47.6084 24.2297 47.6084Z" fill="#FDEE35"/>
<path d="M24.7151 47.7437L14.4624 50.7652C14.6113 50.8504 14.7878 50.9005 14.9808 50.9005H24.1912C24.7316 50.9005 25.1729 50.4996 25.1729 50.0085V48.4953C25.1784 48.1796 24.9909 47.899 24.7151 47.7437Z" fill="#FFB531"/>
<path d="M28.8947 46.3046C30.9343 44.4515 30.9343 41.447 28.8947 39.5939C26.8551 37.7407 23.5482 37.7407 21.5085 39.5939C19.4689 41.447 19.4689 44.4515 21.5085 46.3046C23.5482 48.1577 26.8551 48.1577 28.8947 46.3046Z" fill="#FFB531"/>
<path d="M28.8955 42.9486C28.8955 44.8026 27.2409 46.3058 25.2003 46.3058C23.1597 46.3058 21.5051 44.8026 21.5051 42.9486C21.5051 41.0946 23.1597 39.5913 25.2003 39.5913C27.2409 39.5913 28.8955 41.0946 28.8955 42.9486Z" fill="#FDEE35"/>
<path d="M24.8915 45.1332V44.6221C24.4944 44.6071 24.1138 44.5119 23.8877 44.3916L24.0642 43.7653C24.3124 43.8906 24.6598 44.0008 25.0459 44.0008C25.3823 44.0008 25.6139 43.8805 25.6139 43.6701C25.6139 43.4646 25.4264 43.3394 24.9907 43.2041C24.362 43.0137 23.9263 42.7431 23.9263 42.2219C23.9263 41.7509 24.2903 41.3801 24.9245 41.2699V40.7588H25.5036V41.2298C25.9007 41.2448 26.1655 41.32 26.3585 41.4052L26.1875 42.0115C26.0331 41.9514 25.7629 41.8311 25.3382 41.8311C24.9521 41.8311 24.8308 41.9814 24.8308 42.1318C24.8308 42.3071 25.0348 42.4224 25.5367 42.5927C26.2372 42.8182 26.5239 43.1139 26.5239 43.5949C26.5239 44.0709 26.1544 44.4818 25.4761 44.5871V45.1332H24.8915Z" fill="#D86E1E"/>
<g opacity="0.4">
<path d="M28.8182 39.5312L21.3948 46.1856C22.3489 47.1076 23.7001 47.6889 25.2058 47.6889C28.0902 47.6889 30.4286 45.5643 30.4286 42.9436C30.4231 41.6007 29.8054 40.3931 28.8182 39.5312Z" fill="#D37753"/>
</g>
</g>
<defs>
<clipPath id="clip0_110_735">
<rect width="44" height="44" fill="white" transform="translate(13.999 13.5)"/>
</clipPath>
</defs>
</svg>
