<svg width="70" height="71" viewBox="0 0 70 71" fill="none" xmlns="http://www.w3.org/2000/svg">
<circle cx="35" cy="35.5" r="35" fill="#A5A5A5" fill-opacity="0.15"/>
<g clip-path="url(#clip0_110_709)">
<mask id="mask0_110_709" style="mask-type:luminance" maskUnits="userSpaceOnUse" x="8" y="17" width="53" height="54">
<path d="M34.5 70.4936C49.1355 70.4936 61 58.6306 61 43.9968C61 29.363 49.1355 17.5 34.5 17.5C19.8645 17.5 8 29.363 8 43.9968C8 58.6306 19.8645 70.4936 34.5 70.4936Z" fill="white"/>
</mask>
<g mask="url(#mask0_110_709)">
<path d="M26.3979 42.5235C26.2814 42.6855 26.0079 56.458 28.5855 59.2631L43.0838 59.172C43.0838 59.172 46.978 48.5743 44.2435 42.4121L26.3118 42.5235" fill="black"/>
<path d="M40.3839 51.1611L30.2356 51.2246L30.2784 58.0602L40.4267 57.9967L40.3839 51.1611Z" fill="#F9C2A7"/>
<path d="M32.7275 56.1541C34.2619 56.7516 35.9381 57.1061 37.589 57.1111C38.5309 57.1111 39.493 56.9896 40.4198 56.8174L40.3843 51.1616L30.231 51.2224L30.2512 54.7566C30.9703 55.3845 31.8869 55.825 32.7275 56.1541Z" fill="#EDEDED"/>
<path d="M46.5524 39.0752C46.5676 41.9411 46.0916 44.8374 44.7597 47.3286C43.5899 49.5058 41.8327 51.2527 39.9388 52.6502C38.4044 53.7844 36.7535 55.106 34.8039 54.9591C32.7681 54.8072 31.1679 53.0806 29.674 51.7337C27.5724 49.8451 25.9064 47.4855 24.8683 44.7108C24.2302 42.9994 23.9314 41.0651 23.9162 39.217C23.8605 29.956 28.8891 24.0977 35.1432 24.0622C41.3922 24.0217 46.4916 29.8143 46.5524 39.0752Z" fill="#F9C2A7"/>
<path d="M50.8106 61.0252L39.771 57.7847L35.3501 57.81L30.9292 57.8353L19.9302 61.2126C19.9302 61.2126 14.8358 63.4152 14.3142 70.2913L35.4312 70.1596L56.5481 70.028C55.9303 63.162 50.8106 61.0252 50.8106 61.0252Z" fill="#F9C2A7"/>
<path d="M50.811 61.0249L44.7038 59.2324L35.4164 68.6301L25.9821 59.359L19.9256 61.2173C19.9256 61.2173 14.7147 63.4553 14.3096 70.296L45.1849 70.1036L56.7562 70.0327C55.6877 62.9085 50.811 61.0249 50.811 61.0249Z" fill="#0D3953"/>
<path d="M24.5493 33.7284C27.2231 36.3158 35.7357 35.7031 34.6925 35.6576L35.6952 30.4321L36.3586 35.7335C36.3586 35.7335 37.9588 36.3513 41.5847 35.7487L42.4557 32.1436L43.0988 35.4702C43.0988 35.4702 45.5802 34.7968 46.1423 33.5816C46.1423 33.5816 45.6511 24.4219 36.1611 23.5459C36.1611 23.551 26.6256 23.7535 24.5493 33.7284Z" fill="black"/>
<path d="M43.0432 26.6245C43.0432 26.6245 47.2362 53.2682 41.7417 60.5341C41.7417 60.5341 47.378 58.291 48.0768 53.734C48.0768 53.7289 52.523 34.25 43.0432 26.6245Z" fill="black"/>
<path d="M29.051 26.5132C29.051 26.5132 24.5491 53.41 30.1347 60.6051C30.1347 60.6051 24.4731 58.4329 23.7135 53.8809C23.7135 53.8809 19.6674 34.2602 29.051 26.5132Z" fill="black"/>
<path d="M25.7646 59.4304L35.5078 69.3496L45.9903 59.6126L42.8912 58.4076L35.361 59.9165L29.2841 57.8506L25.7646 59.4304Z" fill="#E9E9E9"/>
<path d="M25.7646 59.4303L30.4641 57.3239L35.2799 59.1772L40.0756 57.2632L45.1244 59.3088L38.0297 63.8304L35.285 60.1898L32.3783 63.8659L25.7646 59.4303Z" fill="#D6D6D6"/>
</g>
</g>
<defs>
<clipPath id="clip0_110_709">
<rect width="67" height="67" fill="white" transform="translate(1 3.5)"/>
</clipPath>
</defs>
</svg>
