<svg width="70" height="71" viewBox="0 0 70 71" fill="none" xmlns="http://www.w3.org/2000/svg">
<circle cx="35" cy="35.5" r="35" fill="#A5A5A5" fill-opacity="0.15"/>
<g clip-path="url(#clip0_110_862)">
<path d="M14.4391 14.5528C14.4249 14.5473 14.4111 14.5409 14.3965 14.5359L14.4365 14.5478C14.4499 14.5006 14.4658 14.4539 14.483 14.4087C14.6169 14.0535 14.8592 13.7535 15.1592 13.5786C15.5131 13.8017 15.7636 14.2304 15.8096 14.6929C15.829 14.8861 15.8118 15.0829 15.764 15.2696L15.7644 15.2701C15.7644 15.2701 15.7636 15.2731 15.7623 15.2771C15.758 15.2935 15.7533 15.3099 15.7485 15.3263C15.6766 15.593 15.399 16.7789 15.7515 18.0029C16.1518 19.3934 15.8355 19.8315 15.8355 19.8315C15.8355 19.8315 14.7099 20.1619 14.0194 19.923C13.3458 19.69 13.8636 16.4763 14.4391 14.5528Z" fill="#9E6652"/>
<path d="M16.58 48.4802L16.5688 49.0093L17.4392 49.5905L17.8907 49.0873L17.4612 48.5324L16.5908 47.9512L16.58 48.4802Z" fill="#514943"/>
<path d="M15.5268 32.4266L15.4937 34.0337L17.0992 39.4013L16.5375 48.3071L17.407 48.5689L19.0659 39.7749L19.2531 37.2433L18.886 31.9512L15.5268 32.4266Z" fill="#59595B"/>
<path d="M22.8905 33.3981L22.426 48.3263L21.6181 48.4222L20.6307 39.0062L18.5688 32.5596L22.8905 33.3981Z" fill="#59595B"/>
<path d="M21.6121 48.3055L21.6594 48.8341L22.5806 49.2588L22.9701 48.6786L22.4859 48.2017L21.6121 48.3055Z" fill="#514943"/>
<path d="M13.0325 18.9776C12.9507 21.9384 13.1492 25.0716 14.5993 27.6156C14.9639 28.2549 15.4004 28.8347 15.9061 29.3304C15.969 29.392 16.0611 29.2872 15.9974 29.2251C13.4354 26.7134 13.0618 22.6115 13.1621 18.9781C13.1642 18.8817 13.0351 18.8817 13.0325 18.9776Z" fill="#9E6652"/>
<path d="M14.2364 17.588L13.0311 18.2339C13.0311 18.2339 11.6537 19.7242 13.0311 24.2945C14.4085 28.8649 14.6238 33.0875 14.4946 35.4223C14.4946 35.4223 20.2626 37.1611 23.577 34.5281C26.8914 31.8952 20.7791 16.1971 14.2364 17.588Z" fill="#90A8B2"/>
<path d="M13.9823 17.7246L13.4749 17.9968L14.495 23.5995C14.495 23.5995 17.0023 32.8877 16.3945 35.8197L18.9445 35.9861H19.8523L21.8483 35.4759C21.8478 35.4754 21.4329 22.0337 13.9823 17.7246Z" fill="#FFF5D7"/>
<path d="M15.2842 17.5078L16.8191 17.5883L20.7362 20.4696L21.0375 17.0915L22.4579 16.7935L22.7593 23.5993L21.4679 24.2948L19.2727 22.2083L15.2842 17.5078Z" fill="#90A8B2"/>
<path d="M55.0424 19.2773L51.6849 21.1153L48.6133 16.3701L47.4976 16.9672L50.0923 23.1024L51.6832 23.8243L55.9893 22.705L56.6402 19.8878L55.0424 19.2773Z" fill="#9CB0B0"/>
<path d="M35.6588 11.6946L19.1836 19.1264C19.1005 19.1637 19.0454 19.259 19.0454 19.3658V23.2596C19.0454 23.4007 19.1405 23.5149 19.2585 23.5149H52.2085C52.326 23.5149 52.4215 23.4007 52.4215 23.2596V19.3658C52.4215 19.2595 52.3664 19.1642 52.2833 19.1264L35.8086 11.6946C35.7604 11.6728 35.707 11.6728 35.6588 11.6946Z" fill="#E2D9C3"/>
<path d="M25.2863 24.1279H20.3328V25.2824H25.2863V24.1279Z" fill="#ABA594"/>
<path d="M24.7698 42.6954H20.8726L21.1545 25.2734H24.4883L24.7698 42.6954Z" fill="#E2D9C3"/>
<path d="M33.8788 24.1279H28.9253V25.2824H33.8788V24.1279Z" fill="#ABA594"/>
<path d="M33.3623 42.6954H29.4651L29.747 25.2734H33.0804L33.3623 42.6954Z" fill="#E2D9C3"/>
<path d="M42.4975 24.1279H37.5439V25.2824H42.4975V24.1279Z" fill="#ABA594"/>
<path d="M41.981 42.6954H38.0837L38.3657 25.2734H41.6995L41.981 42.6954Z" fill="#E2D9C3"/>
<path d="M51.09 24.1279H46.1365V25.2824H51.09V24.1279Z" fill="#ABA594"/>
<path d="M50.5735 42.6954H46.6763L46.9582 25.2734H50.2916L50.5735 42.6954Z" fill="#E2D9C3"/>
<path d="M35.719 12.7632L25.9927 17.1413H45.4866L35.719 12.7632Z" fill="#ABA594"/>
<path d="M53.7033 19.7576L35.8219 11.7147C35.7706 11.6919 35.7138 11.6919 35.6626 11.7147L17.6908 19.8117C17.5427 19.8783 17.3843 19.7471 17.3843 19.5569V18.9409C17.3843 18.8276 17.4428 18.7258 17.5315 18.686L35.6626 10.5175C35.7138 10.4942 35.7706 10.4942 35.8219 10.5175L53.8622 18.6319C53.9508 18.6716 54.0094 18.7734 54.0094 18.8867V19.5027C54.0094 19.6925 53.8514 19.8241 53.7033 19.7576Z" fill="#878275"/>
<path d="M52.2793 45.749H18.9441V46.3625H52.2793V45.749Z" fill="#E2D9C3"/>
<path d="M53.5991 47.4868H17.667V48.1003H53.5991V47.4868Z" fill="#E2D9C3"/>
<path d="M25.2863 42.7202H20.3328V43.8583H25.2863V42.7202Z" fill="#ABA594"/>
<path d="M25.2863 43.8584H20.3328V44.6249H25.2863V43.8584Z" fill="#E2D9C3"/>
<path d="M33.8788 43.8584H28.9253V44.6249H33.8788V43.8584Z" fill="#E2D9C3"/>
<path d="M33.8788 42.7202H28.9253V43.8583H33.8788V42.7202Z" fill="#ABA594"/>
<path d="M42.4975 43.8584H37.5439V44.6249H42.4975V43.8584Z" fill="#E2D9C3"/>
<path d="M42.4975 42.7202H37.5439V43.8583H42.4975V42.7202Z" fill="#ABA594"/>
<path d="M51.09 42.7202H46.1365V43.8583H51.09V42.7202Z" fill="#ABA594"/>
<path d="M51.09 43.8584H46.1365V44.6249H51.09V43.8584Z" fill="#E2D9C3"/>
<path d="M52.282 44.6221H18.9705V45.7766H52.282V44.6221Z" fill="#878275"/>
<path d="M53.5908 46.3628H17.6609V47.5173H53.5908V46.3628Z" fill="#878275"/>
<path d="M54.9671 48.1211H16.241V49.2756H54.9671V48.1211Z" fill="#878275"/>
<path d="M51.6836 23.5171H19.7107V24.1306H51.6836V23.5171Z" fill="#878275"/>
<path d="M32.086 36.288C32.1708 36.0411 32.2117 35.7693 32.2155 35.5195C32.2224 35.0888 32.1161 34.6536 31.9086 34.2949C31.8191 34.1399 31.6448 34.0728 31.4993 34.1712C31.3659 34.2611 31.3017 34.4877 31.3921 34.6436C31.6 35.0033 31.6676 35.436 31.5768 35.8513C31.4989 35.8175 31.4184 35.7922 31.3366 35.7753C31.037 35.7142 30.5932 35.667 30.4245 36.0321C30.2342 36.4435 30.5101 36.8473 30.8485 36.9701C31.1153 37.0669 31.424 37.0734 31.6659 36.9144C31.7227 37.3337 31.6474 37.5662 31.3176 37.745C31.1171 37.8538 30.6035 38.0088 30.4064 37.8101C30.2786 37.6809 30.2269 37.2299 30.1615 37.0381C29.9803 36.5066 29.7487 35.9979 29.4741 35.5229C28.9162 34.5582 28.1823 33.741 27.3537 33.0882C25.4826 31.6143 23.1844 30.973 20.9414 30.9094C20.8174 30.9059 20.6939 30.9039 20.5699 30.9039C19.0311 30.9039 17.568 31.2194 16.2466 31.817C15.8691 31.3118 15.4124 30.8905 14.8902 30.6009C13.7254 29.9546 12.243 30.04 11.2211 30.9531C12.2563 31.9789 13.2037 33.5453 13.3561 33.8026C12.1651 34.9765 11.2272 36.4802 10.64 38.2676C10.628 38.3049 10.6164 38.3402 10.6056 38.3744L9.01081 38.9686C9.01081 38.9686 8.89674 42.7784 9.40983 43.8305C9.40983 43.8305 10.7618 44.2066 11.5655 44.3099C12.3454 45.7193 13.5085 46.921 14.9294 47.7998C15.0237 47.8579 15.1188 47.9145 15.2152 47.9702V50.9951C15.2152 50.9951 17.33 51.7844 18.3527 51.3895L18.9648 49.2608C19.4874 49.3373 20.0233 49.3776 20.5699 49.3776C21.216 49.3776 21.8479 49.3309 22.46 49.2395L23.0785 51.39C24.1013 51.7844 26.216 50.9956 26.216 50.9956V47.9722C28.896 46.4481 30.6578 43.7421 30.6578 40.1415C30.6578 39.8345 30.6449 39.5344 30.619 39.2403C31.0749 39.1454 31.507 38.9308 31.8273 38.526C32.0739 38.2145 32.2125 37.8439 32.2517 37.4256C32.287 37.0475 32.2844 36.6089 32.086 36.288Z" fill="#E498B5"/>
<path d="M17.5259 32.1834L17.8758 33.2694C17.8758 33.2694 20.8295 32.3101 23.958 33.2694L24.6252 32.4994C24.6256 32.4989 21.6827 30.1382 17.5259 32.1834Z" fill="#C27098"/>
<g opacity="0.03">
<path d="M30.4827 40.5095C29.4216 43.0465 27.3938 44.8299 25.1977 45.9387C23.5719 46.7599 21.7765 47.3262 19.9755 47.442C17.3688 47.6094 14.898 46.7067 12.5595 45.505C12.4566 45.4519 12.3554 45.3962 12.2551 45.3391C12.9697 46.2825 13.8706 47.0977 14.9101 47.7405C16.52 48.7366 18.4608 49.3178 20.5502 49.3178C26.1068 49.3178 30.6135 45.8652 30.6376 40.1279C30.5894 40.2566 30.5356 40.3833 30.4827 40.5095Z" fill="black"/>
</g>
<g opacity="0.03">
<path d="M10.5805 38.4561C10.5805 38.4561 9.76056 42.2902 11.5654 44.3101L10.7519 44.1625C10.7519 44.1625 9.53673 40.8595 10.5805 38.4561Z" fill="black"/>
</g>
<path d="M22.6959 24.4111C23.2699 22.0346 22.0659 19.5711 20.0067 18.9087C17.9475 18.2463 15.8129 19.6358 15.2389 22.0124C14.665 24.3889 15.869 26.8524 17.9282 27.5148C19.9874 28.1772 22.122 26.7877 22.6959 24.4111Z" fill="#E89F40"/>
<g opacity="0.1">
<path d="M17.0276 18.8871C14.9581 20.1231 14.1488 23.061 15.2198 25.4496C16.2907 27.8381 18.8363 28.772 20.9059 27.536C22.9755 26.3 23.7847 23.3621 22.7138 20.9736C21.6428 18.5851 19.0972 17.6511 17.0276 18.8871ZM20.5801 26.8097C18.8583 27.8381 16.7401 27.0611 15.8491 25.0735C14.9581 23.0864 15.6313 20.6417 17.3535 19.6134C19.0752 18.5851 21.1934 19.362 22.0845 21.3497C22.9755 23.3368 22.3018 25.7814 20.5801 26.8097Z" fill="#272525"/>
</g>
<path d="M16.829 18.4435C14.5472 19.8062 13.6549 23.0457 14.8356 25.6791C16.0163 28.3125 18.8232 29.3423 21.105 27.9797C23.3868 26.617 24.2791 23.3775 23.0984 20.7441C21.9177 18.1107 19.1107 17.0809 16.829 18.4435ZM20.746 27.1788C18.8477 28.3125 16.5122 27.4556 15.5295 25.2648C14.5468 23.074 15.2897 20.3785 17.188 19.2443C19.0862 18.1107 21.4218 18.9676 22.4045 21.1584C23.3868 23.3497 22.6443 26.0447 20.746 27.1788Z" fill="#F2D042"/>
<path d="M18.3775 25.0732C18.3202 25.0642 18.2811 24.9977 18.2427 24.9391C18.145 24.79 18.1782 24.6142 18.3103 24.5118C18.5083 24.3588 18.8053 24.4164 19.0434 24.4085C19.2388 24.4025 19.4312 24.3434 19.621 24.2316C19.8242 24.1119 19.9619 23.9594 20.0342 23.7726C20.1066 23.5863 20.1014 23.4 20.0196 23.2142C19.9365 23.026 19.8276 22.9207 19.6938 22.8993C19.5599 22.8779 19.3731 22.9375 19.1338 23.0786L18.9758 23.1715C18.5849 23.4015 18.2453 23.4825 17.9569 23.4149C17.6685 23.3474 17.4451 23.1343 17.2867 22.7756C17.1318 22.4254 17.112 22.094 17.2265 21.7825C17.341 21.4711 17.5794 21.2083 17.9419 20.9951C18.0895 20.9082 18.2526 20.8486 18.4313 20.8153C18.8027 20.7463 19.4618 20.7333 19.5117 21.165C19.5685 21.6573 18.7438 21.3811 18.5045 21.3995C18.3641 21.41 18.2165 21.4611 18.0615 21.5525C17.8812 21.6583 17.7606 21.7989 17.6991 21.9743C17.6375 22.1492 17.6444 22.322 17.7193 22.4914C17.7934 22.6589 17.9027 22.7448 18.0473 22.7503C18.1919 22.7552 18.4537 22.6534 18.832 22.4442C19.2366 22.2232 19.5702 22.1477 19.8337 22.2187C20.0967 22.2897 20.311 22.5123 20.4763 22.8864C20.6347 23.2445 20.6597 23.5913 20.5516 23.9256C20.4436 24.2605 20.2168 24.5292 19.872 24.7319C19.7626 24.796 19.6348 24.8536 19.4884 24.9048C19.2147 25.0002 18.7722 25.1353 18.3775 25.0732Z" fill="#F2D042"/>
<path d="M20.1749 25.7426L20.1706 25.7451C20.0514 25.8151 19.8981 25.7431 19.828 25.5841L17.6607 20.678C17.5905 20.519 17.6301 20.3332 17.7489 20.2632L17.7532 20.2607C17.8725 20.1906 18.0257 20.2627 18.0959 20.4216L20.2631 25.3278C20.3333 25.4873 20.2937 25.6726 20.1749 25.7426Z" fill="#F2D042"/>
<path d="M53.0859 31.8408L53.1669 40.1509L54.732 48.8699L55.9906 48.698L55.8223 40.2105L56.9629 30.9541L53.0859 31.8408Z" fill="#59595B"/>
<path d="M56.0151 30.2954L57.5208 39.4292L59.6541 48.8783L60.8314 48.6662L60.4001 39.2001L60.8085 30.3555L56.0151 30.2954Z" fill="#59595B"/>
<path d="M55.8865 19.316C56.1749 19.2564 56.4633 19.1968 56.7517 19.1372C56.7362 18.8679 56.7022 18.6007 56.6497 18.3379C56.6561 18.3696 57.0874 18.015 57.121 17.9444C57.2179 17.7417 57.1955 17.4297 57.2192 17.2022C57.2695 16.7184 57.3065 16.1769 57.044 15.7949C56.7724 15.3994 56.2752 15.3269 55.8405 15.381C55.2946 15.4491 54.7088 15.7263 54.4919 16.3085C54.296 16.8341 54.6985 17.5023 54.8496 18.0025C54.924 18.2494 55.0261 18.5281 55.243 18.6036C55.3579 18.6439 55.4888 18.617 55.5951 18.6821C55.7819 18.7974 55.7789 19.1054 55.8865 19.316Z" fill="#EACDB0"/>
<path d="M53.5264 15.5124C53.4536 15.1706 53.3809 14.8283 53.3081 14.4865C53.281 14.3594 53.2539 14.2277 53.2759 14.0995C53.312 13.8859 53.4769 13.7309 53.6503 13.6465C53.8242 13.562 54.0136 13.5307 54.1905 13.4557C54.3795 13.3762 54.5569 13.2466 54.7574 13.2257C55.1384 13.186 55.4754 13.5466 55.8581 13.5576C56.3875 13.5725 56.8313 13.2247 57.2265 13.88C57.2992 14.0002 57.3324 14.1467 57.3986 14.2719C57.4843 14.4339 57.619 14.5506 57.7305 14.6902C58.2191 15.3032 58.2066 16.3509 57.7766 17.0017C57.5682 17.3172 57.4989 17.5839 57.1778 17.725C57.288 17.345 56.9217 15.956 56.4874 15.8616C56.3725 15.8368 56.0595 16.0434 55.9399 16.0832C55.6747 16.1706 55.4177 16.2615 55.1776 16.423C54.8211 16.6619 54.4264 16.8537 54.0218 16.952C53.9702 16.9645 53.9121 16.9759 53.8677 16.9421C53.8264 16.9103 53.8113 16.8497 53.7993 16.7936C53.7085 16.3663 53.6172 15.9396 53.5264 15.5124Z" fill="#3A3029"/>
<path d="M61.8735 31.5226C61.9867 32.3667 62.0991 33.5107 61.8524 33.5917C61.8064 33.6066 61.7577 33.5838 61.713 33.5609C61.2425 33.3215 60.8844 32.937 60.4212 32.7069C59.9357 32.466 59.4028 32.3806 58.8854 32.3433C58.111 32.2822 57.328 32.2916 56.558 32.3935C55.9528 32.4735 55.354 32.6344 54.7609 32.7924C54.2672 32.924 53.8242 33.1878 53.3094 33.2216C52.7817 33.2559 52.2436 33.1292 51.756 32.8436C51.7383 32.8331 51.7189 32.8212 51.7095 32.7988C51.6991 32.7745 51.703 32.7452 51.7073 32.7189C51.7697 32.3244 51.8029 31.9379 51.96 31.5952C52.1356 31.2121 52.2372 30.7442 52.3474 30.3219C52.5764 29.4421 52.7817 28.5251 52.9065 27.6065C53.1106 26.3522 53.3671 25.1217 53.5591 23.8653C53.6921 22.9945 53.8031 22.1117 54.024 21.2716C54.1966 20.6139 54.5276 19.6402 55.0213 19.2855C55.1883 19.1653 55.3837 19.1266 55.5748 19.0898C56.1538 18.978 56.7327 18.8657 57.3117 18.754C57.5226 18.7132 57.7426 18.673 57.9492 18.756C58.2587 18.8802 58.4683 19.2483 58.6542 19.593C59.488 21.139 60.104 22.8499 60.5465 24.6438C60.7776 25.5807 60.9997 26.5206 61.1981 27.4679C61.4194 28.5251 61.6109 29.5922 61.7508 30.6687C61.7659 30.7879 61.8201 31.1212 61.8735 31.5226Z" fill="#AEC4C4"/>
<path d="M56.8824 22.5992C56.9048 22.9827 56.9965 23.3563 57.0873 23.7264C57.6409 25.9808 58.3632 30.0886 58.9167 32.343C57.3533 32.57 55.4439 32.8611 53.8805 33.0881C53.8366 32.2183 53.9709 29.4299 53.927 28.5595C53.899 28.0016 53.8706 27.4423 53.9085 26.8844C53.9696 25.9852 54.2003 25.1119 54.4298 24.2465C54.8538 22.6479 55.2777 21.0493 55.7017 19.4506C55.7245 19.3652 55.7486 19.2768 55.8007 19.2097C55.8636 19.1292 55.9574 19.091 56.0474 19.0582C56.4834 18.8992 56.9784 18.7452 57.436 18.7517C57.603 19.2057 57.2849 20.089 57.1829 20.551C57.0335 21.2236 56.8411 21.8977 56.8824 22.5992Z" fill="white"/>
<path d="M54.8836 48.8312L54.1006 49.4204L54.2366 49.9708L56.007 49.6171L55.9235 48.7095L54.8836 48.8312Z" fill="#3A3029"/>
<path d="M59.9055 48.8224L59.2935 49.6703L59.5995 50.1646L61.0376 49.3171L60.7931 48.646L59.9055 48.8224Z" fill="#3A3029"/>
<path d="M47.8971 18.0352H25.2988V23.0029H47.8971V18.0352Z" fill="#CCC4B0"/>
<path d="M49.1784 16.5249L48.6288 15.4519L47.5096 15.3525L46.907 16.3461L47.5096 16.7435L48.6288 16.3461L49.1784 16.5249Z" fill="#EACDB0"/>
<path d="M58.0985 18.7803L56.8502 19.5254L53.751 23.8474L48.7148 20.9164L48.0261 22.1087L52.7179 26.4306L54.6119 26.5797L59.2934 21.1216L58.0985 18.7803Z" fill="#AEC4C4"/>
<path d="M47.7351 18.2995L25.1663 16.9824L24.9489 21.9437L47.5178 23.2608L47.7351 18.2995Z" fill="#FFFDF8"/>
<path d="M31.6428 19.1559C31.5408 19.1504 31.4568 19.1757 31.3901 19.2324C31.3238 19.289 31.2881 19.374 31.2834 19.4882C31.2786 19.6025 31.3131 19.6914 31.3867 19.7555C31.4603 19.8196 31.5503 19.8683 31.657 19.902C31.7638 19.9358 31.8705 19.9731 31.9768 20.0148C32.0831 20.0565 32.1727 20.1276 32.2446 20.2289C32.3164 20.3298 32.3487 20.4694 32.3418 20.6467C32.3345 20.8246 32.2631 20.98 32.1275 21.1137C31.9919 21.2473 31.815 21.3084 31.5972 21.2965C31.3794 21.2846 31.205 21.216 31.0738 21.0913C30.9425 20.9661 30.8813 20.8002 30.89 20.5926L31.2558 20.6124C31.2593 20.7187 31.2898 20.8052 31.3475 20.8708C31.4048 20.9363 31.4917 20.9721 31.6075 20.9786C31.7233 20.985 31.8163 20.9552 31.886 20.8896C31.9557 20.8241 31.9928 20.7441 31.9966 20.6497C32.0005 20.5553 31.9829 20.4803 31.9441 20.4251C31.9054 20.37 31.8537 20.3273 31.79 20.297C31.7263 20.2672 31.6557 20.2393 31.5787 20.2145C31.5016 20.1897 31.4241 20.1609 31.3462 20.1291C31.2683 20.0973 31.1977 20.0575 31.1349 20.0098C31.0716 19.9626 31.0212 19.8956 30.9838 19.8091C30.9463 19.7227 30.93 19.6184 30.9352 19.4962C30.9438 19.2865 31.0161 19.1211 31.1521 18.9999C31.2881 18.8792 31.4607 18.824 31.6695 18.8355C31.8783 18.8469 32.0431 18.9115 32.1632 19.0287C32.2837 19.1464 32.3466 19.3104 32.3517 19.521L31.9742 19.5006C31.9699 19.4077 31.9394 19.3288 31.8817 19.2632C31.8244 19.1966 31.7448 19.1613 31.6428 19.1559Z" fill="#736E63"/>
<path d="M33.826 21.393L33.696 20.8937L32.8235 20.8465L32.6535 21.3299L32.2966 21.3105L33.1416 18.9429L33.5372 18.9642L34.1854 21.4128L33.826 21.393ZM32.929 20.5435L33.6155 20.5807L33.3202 19.4307L32.929 20.5435Z" fill="#736E63"/>
<path d="M34.8273 21.4476L34.1399 19.0005L34.5058 19.0204L35.0387 21.0502L35.7407 19.0874L36.1036 19.1073L35.2229 21.469L34.8273 21.4476Z" fill="#736E63"/>
<path d="M36.2898 21.527L36.3879 19.1226L36.7297 19.1409L36.6316 21.5453L36.2898 21.527Z" fill="#736E63"/>
<path d="M38.6694 19.243L39.0112 19.2613L38.913 21.6692L38.5713 21.6508L37.6161 19.7998L37.5429 21.5957L37.2012 21.5773L37.2993 19.1694L37.6411 19.1878L38.5962 21.0358L38.6694 19.243Z" fill="#736E63"/>
<path d="M40.2927 21.7654C40.0077 21.75 39.7671 21.6213 39.5708 21.3794C39.3745 21.1374 39.2833 20.8384 39.2979 20.4822C39.3125 20.126 39.4275 19.8374 39.6427 19.6168C39.8579 19.3962 40.1145 19.2939 40.4123 19.3103C40.634 19.3222 40.829 19.3957 40.9969 19.5309C41.1647 19.666 41.2827 19.8508 41.3511 20.0858L40.9405 20.0634C40.8385 19.815 40.6577 19.6839 40.3977 19.67C40.1876 19.6585 40.0133 19.7286 39.8738 19.8806C39.7344 20.0326 39.6595 20.2393 39.6487 20.5011C39.638 20.7629 39.6956 20.977 39.8222 21.1434C39.9487 21.3098 40.1106 21.3982 40.3086 21.4092C40.5066 21.4201 40.6663 21.3679 40.7881 21.2532C40.9099 21.1384 40.987 20.978 41.0197 20.7718L40.2371 20.7291L40.2496 20.4211L41.3976 20.4837L41.3851 20.7917C41.3412 21.0783 41.2194 21.3163 41.0197 21.5051C40.82 21.6943 40.5776 21.7808 40.2927 21.7654Z" fill="#736E63"/>
<path d="M42.4138 19.7418C42.3118 19.7363 42.2278 19.7617 42.1611 19.8183C42.0948 19.875 42.0591 19.9604 42.0544 20.0742C42.0496 20.1884 42.0841 20.2773 42.1577 20.3414C42.2313 20.4055 42.3213 20.4542 42.428 20.488C42.5348 20.5218 42.6415 20.559 42.7478 20.6007C42.8541 20.6425 42.9437 20.7135 43.0156 20.8149C43.0874 20.9157 43.1197 21.0553 43.1128 21.2326C43.1055 21.4105 43.0341 21.566 42.8985 21.6996C42.7629 21.8332 42.586 21.8943 42.3682 21.8824C42.1504 21.8705 41.976 21.8019 41.8448 21.6773C41.7135 21.5521 41.6523 21.3861 41.661 21.1785L42.0268 21.1984C42.0303 21.3047 42.0608 21.3911 42.1185 21.4567C42.1758 21.5223 42.2627 21.558 42.3785 21.5645C42.4943 21.5709 42.5873 21.5411 42.657 21.4756C42.7267 21.41 42.7637 21.33 42.7676 21.2356C42.7715 21.1412 42.7538 21.0662 42.7151 21.0111C42.6764 20.9559 42.6247 20.9132 42.561 20.8829C42.4973 20.8531 42.4267 20.8253 42.3497 20.8004C42.2726 20.7756 42.1951 20.7468 42.1172 20.715C42.0393 20.6832 41.9687 20.6435 41.9059 20.5958C41.8426 20.5486 41.7922 20.4815 41.7548 20.3951C41.7173 20.3086 41.701 20.2043 41.7061 20.0821C41.7148 19.8725 41.7871 19.707 41.9231 19.5858C42.0591 19.4651 42.2317 19.41 42.4405 19.4214C42.6492 19.4328 42.8141 19.4974 42.9342 19.6146C43.0547 19.7324 43.1176 19.8963 43.1227 20.1069L42.7452 20.0866C42.7409 19.9937 42.7104 19.9147 42.6527 19.8491C42.5954 19.7826 42.5158 19.7473 42.4138 19.7418Z" fill="#736E63"/>
<path d="M48.5398 21.0854L47.8933 20.4614L46.8951 20.5012L46.7319 21.1872L47.3225 21.6532L48.2746 21.7635L48.5398 21.0854Z" fill="#EACDB0"/>
<path d="M21.0374 17.09L21.5048 16.396H22.4066L22.9743 17.2902L22.2732 17.5912L21.4131 16.9166L21.0374 17.09Z" fill="#EACDB0"/>
<path d="M12.7564 18.2451L11.8688 19.1781L9.67358 25.0897L10.2887 26.2785L15.0972 26.431L14.8251 25.4245L11.6967 24.8413L13.2032 21.3142L13.1662 18.4061L12.7564 18.2451Z" fill="#90A8B2"/>
<path d="M15.5287 15.1619C15.2769 13.4565 13.4324 13.7113 12.8827 15.076C12.5702 15.8524 12.8668 16.9667 13.4587 17.5241C13.469 17.6746 13.4793 18.0904 13.5775 18.1928C13.6838 18.304 14.0251 18.2072 14.159 18.1744C14.196 18.1654 14.2348 18.154 14.2623 18.1237C14.2963 18.0855 14.3036 17.9821 14.3062 17.8669C14.4044 17.8614 14.5047 17.8415 14.6071 17.8048C15.0375 17.6518 15.3548 17.2012 15.4908 16.7054C15.6273 16.2101 15.6044 15.6741 15.5287 15.1619Z" fill="#EACDB0"/>
<path d="M12.7492 20.981C13.0996 20.979 13.4496 20.9433 13.7948 20.8732C13.5576 20.9214 13.5258 18.0004 13.5206 17.7982C13.506 17.2184 13.4698 16.3943 13.7406 15.9055C14.0109 15.4166 14.446 15.2522 14.9161 14.8165C15.0792 14.6655 15.2226 14.4673 15.2691 14.2323C15.3207 13.9725 15.2346 13.6948 15.0887 13.4881C14.864 13.1697 14.5941 13.0082 14.2476 12.9909C13.5477 12.9566 12.7975 13.2646 12.3162 13.8622C11.7347 14.5845 11.5548 15.6571 11.5126 16.6139C11.5014 16.8707 11.5031 17.1295 11.4639 17.3824C11.4222 17.6531 11.3348 17.9114 11.2569 18.1713C11.142 18.5553 11.046 18.9537 11.0481 19.36C11.0503 19.7664 11.1605 20.1852 11.4088 20.4728C11.7558 20.8742 12.2788 20.983 12.7492 20.981Z" fill="#9E6652"/>
<path d="M14.666 25.7261L14.7409 24.9223L15.8446 24.7246L15.9337 25.4509L14.9962 26.0028L15.1623 26.2785L14.9402 26.3371L14.666 25.7261Z" fill="#EACDB0"/>
</g>
<defs>
<clipPath id="clip0_110_862">
<rect width="53" height="41" fill="white" transform="translate(9 10.5)"/>
</clipPath>
</defs>
</svg>
