<svg width="70" height="71" viewBox="0 0 70 71" fill="none" xmlns="http://www.w3.org/2000/svg">
<g clip-path="url(#clip0_110_672)">
<path d="M70.0035 35.3409C70.1243 16.2167 54.5515 0.616515 35.2205 0.496996C15.8896 0.377478 0.120806 15.7839 -3.87087e-06 34.9081C-0.120814 54.0324 15.4521 69.6325 34.783 69.7521C54.114 69.8716 69.8827 54.4652 70.0035 35.3409Z" fill="#A5A5A5" fill-opacity="0.15"/>
<path d="M36.9109 59.2732L41.4493 56.8567C51.6435 51.4303 58 40.9087 58 29.4623V17.9059C58 17.0065 57.2794 16.2595 56.3698 16.2353C45.6442 15.9476 38.991 12.8868 36.8009 11.7022C36.3028 11.4326 35.6984 11.4326 35.2003 11.7022C33.0102 12.8868 26.3571 15.9476 15.6315 16.2353C14.7206 16.2595 14 17.0065 14 17.9059V29.4623C14 40.9087 20.3565 51.4303 30.5507 56.858L35.0891 59.2744C35.6576 59.5754 36.3424 59.5754 36.9109 59.2732Z" fill="#DADADB"/>
<path d="M55.8245 19.2657V29.0717C55.8245 39.9874 49.7918 49.9796 40.0809 55.1498L36.8612 56.8627C36.593 57.0053 36.2964 57.0779 35.9998 57.0779C35.7031 57.0779 35.4065 57.0053 35.1383 56.8627L31.9186 55.1498C22.2077 49.9808 16.175 39.9887 16.175 29.0729V19.2657C16.175 18.8015 16.5508 18.4219 17.0229 18.3893C26.1591 17.7813 32.4328 15.4144 35.6067 13.8973C35.7328 13.8357 35.8663 13.8066 35.9998 13.8066C36.1333 13.8066 36.2655 13.8369 36.3928 13.8973C39.5667 15.4144 45.8417 17.7813 54.9766 18.3893C55.4488 18.4219 55.8245 18.8027 55.8245 19.2657Z" fill="#ECA354"/>
<path d="M55.8247 19.2657V29.0717C55.8247 39.9874 49.792 49.9796 40.0811 55.1498L36.8615 56.8627C36.5933 57.0053 36.2966 57.0779 36 57.0779V13.8066C36.1335 13.8066 36.2657 13.8369 36.393 13.8973C39.567 15.4144 45.8419 17.7813 54.9769 18.3893C55.449 18.4219 55.8247 18.8027 55.8247 19.2657Z" fill="#EF7D00"/>
<path d="M43.5396 31.5635H28.461C27.5637 31.5635 26.8345 32.2767 26.8345 33.1543V44.9126C26.8345 45.7902 27.5637 46.5034 28.461 46.5034H43.5396C44.4369 46.5034 45.1662 45.7902 45.1662 44.9126V33.1543C45.1662 32.2755 44.4369 31.5635 43.5396 31.5635ZM37.455 39.7787V40.9537C37.455 41.7394 36.8037 42.3764 36.0003 42.3764C35.1969 42.3764 34.5456 41.7394 34.5456 40.9537V39.7787C33.9276 39.3399 33.5272 38.6279 33.5272 37.824C33.5272 36.4882 34.6346 35.4051 36.0003 35.4051C37.366 35.4051 38.4735 36.4882 38.4735 37.824C38.4735 38.6279 38.073 39.3411 37.455 39.7787Z" fill="white"/>
<path d="M41.3831 27.1572V29.0007C41.3831 29.6293 40.8615 30.1394 40.2188 30.1394C39.5761 30.1394 39.0546 29.6293 39.0546 29.0007V27.2298C39.0546 25.6111 37.7704 24.2319 36.1167 24.1702C34.3789 24.1061 32.944 25.4697 32.944 27.156V30.4235H30.6167V27.2418C30.6167 24.3733 32.9279 21.9653 35.8609 21.8928C37.4033 21.8553 38.8 22.4501 39.806 23.434C40.7812 24.389 41.3831 25.7042 41.3831 27.1572Z" fill="white"/>
</g>
<defs>
<clipPath id="clip0_110_672">
<rect width="70" height="70" fill="white" transform="translate(0 0.5)"/>
</clipPath>
</defs>
</svg>
