<svg width="70" height="70" viewBox="0 0 70 70" fill="none" xmlns="http://www.w3.org/2000/svg">
<g clip-path="url(#clip0_110_685)">
<mask id="mask0_110_685" style="mask-type:luminance" maskUnits="userSpaceOnUse" x="-1" y="-1" width="72" height="71">
<path d="M70.0035 34.8409C70.1243 15.7167 54.5515 0.116502 35.2205 -0.00301622C15.8896 -0.122535 0.120806 15.2838 -3.82233e-06 34.4081C-0.120814 53.5324 15.4521 69.1325 34.783 69.2521C54.114 69.3716 69.8827 53.9652 70.0035 34.8409Z" fill="white"/>
</mask>
<g mask="url(#mask0_110_685)">
<path d="M70.0035 34.8409C70.1243 15.7167 54.5515 0.116515 35.2205 -0.00300389C15.8896 -0.122522 0.120806 15.2839 -3.87087e-06 34.4081C-0.120814 53.5324 15.4521 69.1325 34.783 69.2521C54.114 69.3716 69.8827 53.9652 70.0035 34.8409Z" fill="#A5A5A5" fill-opacity="0.15"/>
<path d="M23.8223 41.6934C23.8223 41.6934 25.9516 50.58 35.7945 50.58C45.6399 50.58 46.9755 41.6934 46.9755 41.6934" fill="#331B19"/>
<path d="M45.1462 42.826C44.4683 42.6063 43.2461 41.9889 43.0748 40.9922C42.9286 40.1289 42.8077 38.8549 42.9916 38.2846C43.4578 36.8379 44.7631 36.762 45.6879 36.1211C47.2024 35.0642 48.029 35.6084 48.3666 37.008C48.7169 38.4546 47.3914 43.5559 45.1462 42.826Z" fill="#F9BB8D"/>
<path d="M25.7851 42.8258C26.4629 42.6061 27.6876 41.9887 27.8565 40.992C28.0026 40.1287 28.1261 38.8573 27.9396 38.2844C27.4709 36.8377 26.1706 36.7619 25.2433 36.1209C23.7288 35.0667 22.9023 35.6082 22.5646 37.0078C22.2143 38.4571 23.5398 43.5531 25.7851 42.8258Z" fill="#F9BB8D"/>
<path d="M51.0285 67.9998C51.5602 62.5584 51.6912 57.7632 50.6807 56.7639C48.002 54.1165 41.6266 53.5854 41.6266 53.5854H28.7824C28.7824 53.5854 22.9261 53.7869 20.139 56.7639C19.4612 57.4912 19.6376 62.3936 20.0912 67.9998H51.0285Z" fill="#2D262C"/>
<path d="M27.6328 54.8882L28.7819 53.5854H41.626L43.2514 54.6633L35.2959 64.0339L27.6328 54.8882Z" fill="#CDD4C5"/>
<path d="M39.706 49.8081H30.8812L28.7871 54.7681L35.2961 62.0485L41.8076 54.7681L39.706 49.8081Z" fill="#F9BB8D"/>
<path d="M39.7887 56.6361C38.7127 57.8159 37.8458 59.1867 36.4246 59.9742C34.7034 60.9264 33.6602 59.205 32.5842 58.1246C31.8861 57.4209 31.1428 56.814 30.3792 56.1861C29.9332 55.8199 29.5048 55.3385 29.0059 55.0142L35.2931 62.046L40.9705 55.6943C40.527 55.9638 40.1213 56.2699 39.7887 56.6361Z" fill="#D3A179"/>
<path d="M34.9203 53.8786C37.3571 53.8865 39.625 51.2024 40.0862 50.7054L39.7057 49.8081H30.8808L30.5684 50.5432C30.717 50.7159 32.9976 53.8734 34.9203 53.8786Z" fill="#D3A179"/>
<path d="M45.2245 43.522C44.1636 48.0425 38.3224 52.7828 35.1473 52.7828C32.3502 52.7828 26.6349 47.7024 25.9999 43.6319C25.4506 40.1029 24.9844 34.8865 25.6799 32.553C27.4464 26.6382 31.5236 23.6978 35.8403 23.6978C39.9957 23.6978 43.5563 26.6094 45.3908 32.1737C46.2149 34.6641 46.0637 39.9459 45.2245 43.522Z" fill="#F9BB8D"/>
<path d="M27.031 40.7802C26.5825 37.3192 30.181 35.4017 29.0797 31.4829C32.4741 29.1467 35.0016 33.9655 42.8991 35.5665C44.658 35.9222 44.4287 37.7247 44.2599 40.8639C44.8798 40.4846 45.2023 39.9849 45.2326 39.4356C45.2956 38.3682 45.419 37.1701 45.9381 36.6469C47.5081 35.0616 48.1003 36.0661 48.2943 36.7385C48.9344 33.8634 49.0049 31.2082 48.453 28.8982C49.6248 29.0029 50.1918 28.0899 50.6983 26.9126C46.5429 28.8747 42.5085 20.833 37.1234 20.1188C31.9928 19.4387 25.7786 21.6858 24.4708 26.6746C22.1298 27.4359 22.3918 32.4115 22.7597 36.4324C23.4351 35.2107 24.3977 35.3493 25.2721 36.5213C25.7635 37.1779 26.1894 40.2701 26.1894 40.2701C26.1894 40.2701 26.6354 40.7698 27.031 40.7802Z" fill="#402423"/>
<path d="M23.1297 68.0002C23.1625 66.0198 23.2482 56.3405 21.7589 55.7231C19.9521 55.7231 16.1621 62.1298 14 68.0002H23.1297Z" fill="#352E35"/>
<path d="M56.9999 68.0002C54.7521 62.1272 50.8462 55.7231 49.0394 55.7231C47.5527 56.3431 47.8576 66.0198 47.9382 68.0002H56.9999Z" fill="#352E35"/>
</g>
</g>
<defs>
<clipPath id="clip0_110_685">
<rect width="70" height="70" fill="white"/>
</clipPath>
</defs>
</svg>
